SplineFontDB: 3.0
FontName: JannonStM
FullName: Sorts Mill Jannon
FamilyName: Sorts Mill Jannon
Weight: Regular
Copyright: Created by trashman with FontForge 2.0 (http://fontforge.sf.net)
UComments: "small: cut 1000px high, no scaling.+AAoA-larger: cut 1200px high, scale by .95." 
Version: 001.000
ItalicAngle: 0
UnderlinePosition: -100
UnderlineWidth: 50
Ascent: 700
Descent: 300
LayerCount: 3
Layer: 0 0 "Back"  1
Layer: 1 0 "Fore"  0
Layer: 2 0 "backup"  0
NeedsXUIDChange: 1
XUID: [1021 658 797806517 9253483]
FSType: 0
OS2Version: 0
OS2_WeightWidthSlopeOnly: 0
OS2_UseTypoMetrics: 1
CreationTime: 1283672823
ModificationTime: 1285893045
OS2TypoAscent: 0
OS2TypoAOffset: 1
OS2TypoDescent: 0
OS2TypoDOffset: 1
OS2TypoLinegap: 90
OS2WinAscent: 0
OS2WinAOffset: 1
OS2WinDescent: 0
OS2WinDOffset: 1
HheadAscent: 0
HheadAOffset: 1
HheadDescent: 0
HheadDOffset: 1
OS2Vendor: 'PfEd'
MarkAttachClasses: 1
DEI: 91125
Encoding: UnicodeBmp
UnicodeInterp: none
NameList: Adobe Glyph List
DisplaySize: -48
AntiAlias: 1
FitToEm: 1
WinInfo: 80 16 4
BeginPrivate: 9
BlueValues 23 [-29 2 394 426 642 685]
OtherBlues 11 [-251 -239]
StdHW 4 [40]
StdVW 4 [72]
StemSnapH 13 [34 40 47 92]
StemSnapV 19 [72 77 78 83 88 92]
BlueFuzz 1 0
BlueScale 9 0.0230233
BlueShift 1 1
EndPrivate
BeginChars: 65536 80

StartChar: a
Encoding: 97 97 0
Width: 422
VWidth: 0
Flags: W
LayerCount: 3
Fore
SplineSet
78 272 m 0
 62 272 51 288 51 302 c 0
 51 338 88 369 136 390 c 0
 178 408 217 420 252 420 c 0
 295 420 324 391 324 329 c 0xd4
 324 276 315 120 315 103 c 0
 315 65 331 54 344 54 c 0
 385 54 388 92 404 92 c 0
 408 92 415 89 415 82 c 0
 415 60 371 0 312 0 c 0
 258 0 248 68 242 68 c 0
 239 68 180 -8 85 -8 c 0
 59 -8 29 12 29 50 c 0xe8
 29 153 145 200 234 226 c 0
 247 230 251 231 252 250 c 0
 253 268 255 287 255 306 c 0
 255 339 242 377 207 377 c 0
 169 377 155 365 145 348 c 0
 128 320 106 272 78 272 c 0
235 202 m 0
 212 202 110 156 110 90 c 0
 110 60 125 49 146 49 c 0
 170 49 201 60 220 76 c 0
 243 95 249 123 249 155 c 0
 249 171 249 202 235 202 c 0
EndSplineSet
EndChar

StartChar: b
Encoding: 98 98 1
Width: 476
VWidth: 0
Flags: W
HStem: -9 32<184.673 315.818> 357 53<190.259 302.926> 656 20G<120 128.5>
VStem: 77 65<54.5559 351.043 372.583 600.533> 387 69<116.218 271.784>
LayerCount: 3
Fore
SplineSet
247 -9 m 0
 179 -9 159 8 130 8 c 0
 102 8 107 -46 90 -46 c 0
 80 -46 74 -41 74 -24 c 0
 74 -6 77 89 77 129 c 0
 77 233 73 433 73 558 c 0
 73 583 71 591 56 601 c 0
 40 612 13 611 13 625 c 0
 13 633 17 639 30 642 c 0
 86 656 116 676 124 676 c 0
 133 676 142 667 142 654 c 0
 142 559 144 469 144 373 c 0
 144 370 146 361 158 369 c 0
 198 395 229 410 280 410 c 0
 365 410 456 331 456 205 c 0
 456 85 346 -9 247 -9 c 0
250 23 m 0
 338 23 387 88 387 188 c 0
 387 283 319 357 221 357 c 2
 211 357 l 2
 194 357 148 354 146 338 c 0
 142 302 142 266 142 229 c 2
 142 106 l 2
 142 45 205 23 250 23 c 0
EndSplineSet
EndChar

StartChar: c
Encoding: 99 99 2
Width: 411
VWidth: 0
Flags: W
HStem: -20 62<181.35 308.595> 391 39<173.702 287.292>
VStem: 36 70<124.301 290.921>
LayerCount: 3
Fore
SplineSet
238 391 m 0
 150 391 106 305 106 215 c 0
 106 105 182 42 251 42 c 0
 341 42 360 98 378 98 c 0
 386 98 386 93 386 84 c 0
 386 58 316 -20 232 -20 c 0
 134 -20 36 56 36 190 c 0
 36 313 125 430 260 430 c 0
 328 430 372 406 372 369 c 0
 372 352 365 339 339 339 c 0
 304 339 292 391 238 391 c 0
EndSplineSet
EndChar

StartChar: d
Encoding: 100 100 3
Width: 477
VWidth: 0
Flags: W
LayerCount: 3
Fore
SplineSet
460 33 m 0
 460 20 454 19 441 15 c 0
 373 -3 340 -18 336 -18 c 0xbe
 325 -18 323 -12 321 0 c 2
 316 30 l 1
 316 30 256 0 210 0 c 0
 94 0 22 77 22 191 c 0
 22 289 90 407 233 407 c 0
 247 407 263 404 277 400 c 0
 288 397 297 393 303 393 c 0
 311 393 315 399 315 416 c 2
 315 461 l 2
 315 526 310 617 310 630 c 0
 308 665 244 649 244 668 c 0
 244 679 250 684 262 685 c 0
 296 687 371 693 374 693 c 0
 384 693 387 677 387 670 c 0
 384 621 380 332 380 203 c 0
 380 164 380 133 381 94 c 0
 382 49 387 36 402 36 c 0
 406 36 429 42 443 45 c 0
 452 47 460 42 460 33 c 0
257 46 m 0x5e
 309 46 322 54 322 107 c 2
 322 140 l 2
 322 188 321 255 317 300 c 0
 312 352 280 381 227 381 c 0
 144 381 85 320 85 215 c 0
 85 110 173 46 257 46 c 0x5e
EndSplineSet
EndChar

StartChar: e
Encoding: 101 101 4
Width: 412
VWidth: 0
Flags: HW
HStem: -25 71<162.929 297.189> 274 26<112.007 283.106> 383 37<165.498 282.154>
VStem: 20 70<124.753 273.499> 305 77<288 339.38>
LayerCount: 3
Fore
SplineSet
382 83 m 0
 382 57 308 -25 210 -25 c 0
 95 -25 20 73 20 178 c 0
 20 301 107 420 232 420 c 0
 277 420 307 397 334 371 c 0
 360 346 382 308 382 295 c 0
 382 281 373 273 355 273 c 2
 105 274 l 2
 94 274 90 240 90 222 c 0
 90 127 143 46 239 46 c 0
 300 46 351 86 369 94 c 0
 375 96 382 89 382 83 c 0
221 383 m 0
 172 383 112 330 112 304 c 0
 112 300 121 300 130 300 c 2
 151 300 l 2
 177 300 236 301 288 314 c 0
 305 318 305 327 305 336 c 0
 305 360 257 383 221 383 c 0
EndSplineSet
Layer: 2
SplineSet
382 81 m 4
 382 55 308 -27 210 -27 c 4
 95 -27 20 71 20 176 c 4
 20 299 107 418 232 418 c 4
 277 418 307 395 334 369 c 4
 360 344 382 306 382 293 c 4
 382 279 373 271 355 271 c 6
 105 272 l 6
 94 272 90 238 90 220 c 4
 90 125 143 44 239 44 c 4
 300 44 351 84 369 92 c 4
 375 94 382 87 382 81 c 4
221 381 m 4
 172 381 112 328 112 302 c 4
 112 297 130 296 140 296 c 6
 146 296 l 6
 155 296 232 298 288 312 c 4
 305 316 305 325 305 334 c 4
 305 358 257 381 221 381 c 4
EndSplineSet
EndChar

StartChar: f
Encoding: 102 102 5
Width: 310
VWidth: 0
Flags: W
LayerCount: 3
Fore
SplineSet
300 690 m 0xd8
 322 690 364 686 364 662 c 0
 364 658 359 647 356 642 c 0
 347 630 340 622 324 622 c 0
 305 622 280 645 260 645 c 0
 243 645 216 627 202 581 c 0
 190 542 183 484 183 407 c 0
 183 397 186 390 195 390 c 0xd8
 210 390 261 394 280 395 c 0
 289 395 294 391 294 376 c 0
 294 362 292 359 282 359 c 0xb8
 259 358 228 356 199 352 c 0
 181 350 183 346 183 335 c 2
 180 92 l 2
 180 27 198 30 238 29 c 0
 255 29 270 25 270 12 c 0
 270 0 258 -2 247 -2 c 0
 218 -2 186 1 145 1 c 0
 107 1 63 -1 39 -1 c 0
 27 -1 26 3 26 13 c 0
 26 24 37 26 45 26 c 2
 61 26 l 2
 105 26 114 30 114 102 c 2
 114 324 l 2
 114 332 115 340 96 340 c 0
 82 340 59 334 56 334 c 0
 47 334 43 341 43 346 c 0
 43 370 120 371 120 385 c 0
 120 477 134 558 170 610 c 0
 197 650 232 690 300 690 c 0xd8
EndSplineSet
EndChar

StartChar: g
Encoding: 103 103 6
Width: 426
VWidth: 0
Flags: W
LayerCount: 3
Fore
SplineSet
291 274 m 0xe4c0
 291 360 250 394 208 394 c 0
 155 394 124 354 124 288 c 0
 124 195 161 151 208 151 c 0
 262 151 291 210 291 274 c 0xe4c0
230 -21 m 2
 175 -21 l 2
 124 -21 49 -66 49 -135 c 0
 49 -209 137 -224 180 -224 c 0
 273 -224 360 -169 360 -88 c 0
 360 -52 328 -21 230 -21 c 2
162 -254 m 0
 70 -254 -6 -225 -6 -152 c 0xea20
 -6 -58 116 -22 116 -18 c 0
 116 -14 35 28 35 94 c 0xe9
 35 104 42 105 64 112 c 0
 96 123 121 129 121 138 c 0
 121 143 115 150 104 161 c 0
 75 190 58 218 58 277 c 0
 58 352 116 420 208 420 c 0
 258 420 302 398 311 398 c 2
 414 401 l 2
 426 401 433 383 433 372 c 0
 433 356 427 341 417 341 c 0xf480
 388 341 371 343 362 343 c 0
 354 343 351 341 351 335 c 0
 351 327 355 313 355 285 c 0
 355 205 306 128 215 128 c 0
 197 128 178 129 158 129 c 0
 143 129 141 125 124 111 c 0
 111 100 97 87 97 79 c 0xe940
 97 56 142 34 159 34 c 0
 198 34 237 40 266 40 c 0
 339 40 412 25 412 -73 c 0
 412 -178 276 -254 162 -254 c 0
EndSplineSet
EndChar

StartChar: h
Encoding: 104 104 7
Width: 519
VWidth: 0
Flags: W
HStem: -3 28<18.3054 81.5469 284.046 346.975 424.367 502.862> 372 45<225.711 330.956> 602 29<31.2806 89.5474> 645 20G<145 152>
VStem: 93 64<29.1849 336.551 353.017 598.992> 354 68<27.3221 257.006> 360 69<68.0578 343.315>
LayerCount: 3
Fore
SplineSet
308 417 m 0xfa
 415 417 429 349 429 260 c 0xfa
 429 196 422 141 422 59 c 0
 422 39 426 25 443 25 c 2
 476 25 l 2
 491 25 503 23 503 9 c 0
 503 -4 492 -4 484 -4 c 0
 473 -4 430 -3 387 -3 c 0
 345 -3 318 -5 303 -5 c 0
 291 -5 284 0 284 10 c 0
 284 19 291 23 306 24 c 0
 336 25 352 27 354 70 c 0xfc
 358 140 360 224 360 296 c 0
 360 341 313 372 265 372 c 0
 220 372 154 328 154 306 c 2
 152 49 l 2
 152 21 226 26 226 12 c 0
 226 0 218 -3 208 -3 c 0
 198 -3 151 0 123 0 c 0
 86 0 30 -2 26 -2 c 0
 19 -2 18 6 18 9 c 0
 18 14 23 19 35 20 c 0
 54 21 87 26 87 58 c 0
 87 215 93 449 93 580 c 0
 93 600 75 602 63 602 c 2
 50 602 l 2
 39 602 31 604 31 614 c 0
 31 620 35 628 46 631 c 0
 94 645 141 665 149 665 c 0
 155 665 164 661 164 653 c 0
 164 637 157 459 157 396 c 0
 157 376 157 353 159 353 c 0
 169 353 227 417 308 417 c 0xfa
EndSplineSet
EndChar

StartChar: i
Encoding: 105 105 8
Width: 287
VWidth: 0
Flags: W
HStem: -1 27<38.0094 104.354 189.563 257.751> 341 31<59.0648 110.181> 581 80<124.109 200.439>
VStem: 117 65<30.0316 305.906> 119 86<586.355 655.219>
LayerCount: 3
Fore
SplineSet
119 622 m 0xe8
 119 645 138 661 161 661 c 0
 184 661 205 644 205 622 c 0
 205 593 184 581 161 581 c 0
 138 581 119 599 119 622 c 0xe8
191 417 m 0
 191 383 182 238 182 78 c 0
 182 39 190 28 223 28 c 2
 239 28 l 2
 251 28 258 25 258 17 c 0
 258 7 256 0 240 0 c 2
 58 -1 l 2
 47 -1 38 0 38 13 c 0
 38 25 51 26 55 26 c 2
 84 26 l 2
 104 26 112 48 114 86 c 0
 117 151 117 219 117 285 c 0xf0
 117 326 115 334 78 341 c 0
 69 343 59 345 59 355 c 0
 59 361 61 369 78 372 c 0
 121 380 138 398 158 421 c 0
 166 431 174 435 180 435 c 0
 186 435 191 431 191 417 c 0
EndSplineSet
EndChar

StartChar: j
Encoding: 106 106 9
Width: 276
VWidth: 0
Flags: W
HStem: 567 82<78.0117 147.672>
VStem: 72 82<572.48 643.759> 120 71<-95.4996 424>
LayerCount: 3
Fore
SplineSet
114 649 m 0xc0
 138 649 154 631 154 613 c 0
 154 590 139 567 111 567 c 0
 87 567 72 586 72 605 c 0
 72 627 88 649 114 649 c 0xc0
191 424 m 0xa0
 191 300 189 59 187 -1 c 0
 181 -151 88 -236 58 -236 c 0
 51 -236 45 -227 45 -223 c 0
 45 -208 82 -188 96 -151 c 0
 106 -124 116 -95 117 -23 c 0
 118 53 120 276 120 289 c 0
 120 328 119 345 92 352 c 0
 79 355 63 358 63 370 c 0
 63 376 71 384 80 387 c 0
 103 394 131 412 148 425 c 0
 156 431 170 440 180 440 c 0
 187 440 191 436 191 424 c 0xa0
EndSplineSet
EndChar

StartChar: k
Encoding: 107 107 10
Width: 530
VWidth: 0
Flags: W
LayerCount: 3
Fore
SplineSet
64 26 m 0
 98 26 100 47 100 77 c 0
 100 188 104 539 104 574 c 0
 104 614 88 615 80 616 c 0
 58 618 48 616 48 628 c 0
 48 636 53 642 64 645 c 0
 115 657 160 674 170 674 c 0
 179 674 184 665 184 654 c 0
 184 642 180 599 178 538 c 0
 175 447 171 322 171 232 c 0
 171 220 171 212 176 212 c 0
 179 212 184 215 191 220 c 0
 241 254 286 291 335 336 c 0
 343 343 348 350 348 356 c 0
 348 363 340 368 319 369 c 0
 310 369 302 373 302 381 c 0
 302 388 311 393 317 393 c 0xd8
 415 398 473 405 486 405 c 0xb8
 496 405 502 401 502 392 c 0xd8
 502 377 495 376 484 374 c 0
 432 366 413 354 390 336 c 2
 262 241 l 2
 256 236 253 232 253 227 c 0
 253 222 257 216 263 210 c 2
 370 102 l 2
 403 68 438 29 473 29 c 2
 488 29 l 2
 502 29 512 27 512 15 c 0
 512 2 508 0 490 0 c 0
 479 0 410 2 388 2 c 0
 345 2 323 0 282 0 c 0
 272 0 269 6 269 15 c 0
 269 25 279 28 293 28 c 2
 297 28 l 2
 311 28 318 33 318 41 c 0
 318 46 316 52 310 58 c 0
 265 110 211 164 189 184 c 0
 186 187 184 188 182 188 c 0
 174 188 170 174 170 168 c 2
 171 80 l 2
 171 42 173 34 196 29 c 0
 210 26 224 23 224 14 c 0
 224 1 216 0 204 0 c 0
 181 0 145 2 127 2 c 0
 89 2 72 0 48 0 c 0
 35 0 32 4 32 12 c 0
 32 26 48 26 64 26 c 0
EndSplineSet
EndChar

StartChar: l
Encoding: 108 108 11
Width: 280
VWidth: 0
Flags: W
LayerCount: 3
Fore
SplineSet
114 584 m 0xb0
 114 611 106 611 78 621 c 0
 69 624 58 628 58 637 c 0
 58 646 66 650 75 653 c 0
 92 659 114 664 131 669 c 0
 156 676 174 680 178 680 c 0
 187 680 192 672 192 662 c 0
 189 468 186 261 186 65 c 0
 186 40 197 40 220 37 c 0
 241 34 261 37 261 16 c 0
 261 4 251 0 240 0 c 0x70
 217 0 214 2 156 2 c 0
 131 2 59 -4 49 -4 c 0
 32 -4 25 1 25 12 c 0
 25 28 42 29 54 30 c 0
 108 33 112 50 112 75 c 0
 112 186 114 191 114 584 c 0xb0
EndSplineSet
EndChar

StartChar: m
Encoding: 109 109 12
Width: 776
VWidth: 0
Flags: W
LayerCount: 3
Fore
SplineSet
338 428 m 0
 376 428 411 412 431 378 c 0
 436 370 433 365 443 374 c 0
 469 397 505 426 572 426 c 0
 651 426 689 381 689 295 c 0
 689 220 684 135 684 58 c 0
 684 34 706 31 721 29 c 0
 740 27 753 27 753 16 c 0
 753 2 736 -1 727 -1 c 0
 720 -1 682 2 646 2 c 0
 613 2 596 1 563 1 c 0
 550 1 543 6 543 16 c 0
 543 25 553 29 561 29 c 0
 607 29 613 37 615 81 c 0
 618 127 619 202 619 221 c 2
 619 232 l 2
 619 308 617 382 533 382 c 0
 488 382 439 355 439 308 c 0
 439 225 435 78 435 71 c 0
 435 33 448 34 477 29 c 0
 492 26 504 26 504 15 c 0
 504 2 493 1 485 1 c 0
 470 1 428 3 393 3 c 0
 361 3 351 2 319 2 c 0
 306 2 302 5 302 15 c 0
 302 26 309 24 322 27 c 0
 360 35 365 39 367 74 c 0
 368 94 368 119 368 139 c 2
 368 173 l 2
 368 213 367 259 364 297 c 0
 361 343 356 381 290 381 c 0
 241 381 190 348 189 291 c 0
 188 217 186 145 186 69 c 0
 186 6 260 41 260 13 c 0
 260 4 248 3 225 3 c 2
 151 3 l 2
 121 3 89 1 75 1 c 0
 42 1 41 6 41 15 c 0
 41 26 57 25 73 26 c 0
 87 27 115 33 116 58 c 0
 118 92 120 130 120 175 c 0
 120 229 120 293 119 338 c 0
 118 385 54 354 54 381 c 0
 54 393 69 394 95 397 c 0
 130 401 144 418 170 446 c 0
 177 453 183 457 188 457 c 0
 193 457 197 453 197 442 c 0
 197 434 193 399 193 394 c 0
 193 380 195 375 199 375 c 0
 204 375 211 381 218 387 c 0
 242 406 286 428 338 428 c 0
EndSplineSet
EndChar

StartChar: n
Encoding: 110 110 13
Width: 496
VWidth: 0
Flags: HW
HStem: 3 31<26.5625 83.6489 152.459 233.245 280.065 351.506 420.39 479.984> 374 49<210.276 337.43>
VStem: 87 69<34.3359 332.638> 356 64<34.8787 354.764>
LayerCount: 3
Fore
SplineSet
280 17 m 0
 280 34 297 34 314 34 c 2
 320 34 l 2
 348 34 354 39 355 80 c 0
 356 110 356 140 356 169 c 2
 356 207 l 2
 356 238 356 269 354 312 c 0
 352 360 313 374 271 374 c 0
 237 374 204 368 180 354 c 0
 166 346 156 333 156 318 c 0
 155 230 151 146 150 61 c 0
 150 35 175 35 198 31 c 0
 224 27 234 24 234 15 c 0
 234 7 230 3 215 3 c 0
 179 3 148 6 112 6 c 0
 76 6 54 4 46 4 c 0
 35 4 26 6 26 15 c 0
 26 26 38 29 62 33 c 0
 73 35 84 38 85 58 c 0
 87 108 87 169 87 221 c 2
 87 309 l 2
 87 344 37 327 37 346 c 0
 37 357 42 361 61 365 c 0
 95 372 108 394 123 418 c 0
 127 424 135 435 144 435 c 0
 152 435 155 430 155 420 c 0
 155 416 154 403 154 378 c 0
 154 369 156 366 159 366 c 0
 164 366 172 374 178 379 c 0
 207 402 240 423 298 423 c 0
 356 423 426 407 426 328 c 0
 426 242 420 114 420 57 c 0
 420 40 424 37 439 35 c 0
 458 32 480 37 480 19 c 0
 480 4 467 4 460 4 c 0
 416 4 399 5 384 5 c 0
 351 5 324 3 304 3 c 0
 290 3 280 6 280 17 c 0
EndSplineSet
EndChar

StartChar: o
Encoding: 111 111 14
Width: 510
VWidth: 0
Flags: HW
HStem: -20 28<196.152 307.136> 393 28<191.85 301.151>
VStem: 38 72<98.1221 300.453> 389 75<103.402 303.202>
LayerCount: 3
Fore
SplineSet
475 219 m 0
 475 53 364 -16 248 -16 c 0
 146 -16 38 46 38 202 c 0
 38 343 124 436 262 436 c 0
 374 436 475 366 475 219 c 0
256 16 m 0
 367 16 393 139 393 210 c 0
 393 315 332 405 254 405 c 0
 174 405 115 337 115 231 c 0
 115 109 166 16 256 16 c 0
EndSplineSet
EndChar

StartChar: p
Encoding: 112 112 15
Width: 526
VWidth: 0
Flags: HW
HStem: -245 34<30.0124 101.374 179.793 271.96> -2 36<217.194 367.189> 360 34<31.2315 100.393>
VStem: 105 73<-207.079 14.7438 64.8072 347.331> 155 32<427.701 473.808> 435 65<114.702 267.687>
LayerCount: 3
Fore
SplineSet
503 220 m 0xec
 503 103 428 3 290 3 c 0
 242 3 207 13 192 20 c 0
 181 25 178 21 178 16 c 2
 178 -200 l 2
 178 -218 194 -224 242 -228 c 0
 260 -229 272 -233 272 -244 c 0
 272 -256 266 -260 248 -260 c 0
 215 -259 185 -255 153 -255 c 0
 122 -255 98 -260 65 -260 c 0
 48 -260 39 -257 39 -246 c 0
 39 -224 108 -256 108 -166 c 0
 108 -59 105 192 104 326 c 0xf4
 104 368 85 370 54 373 c 0
 43 374 29 375 29 385 c 0
 29 396 34 402 49 403 c 0
 107 408 135 427 152 467 c 0
 156 477 163 481 168 481 c 0
 176 481 183 476 183 458 c 0
 183 446 178 423 178 409 c 0
 178 390 182 388 188 388 c 0
 191 388 194 390 199 394 c 0
 236 421 272 432 311 432 c 0
 402 432 503 376 503 220 c 0xec
265 376 m 0
 203 376 176 363 176 298 c 2
 176 166 l 2
 176 124 180 85 196 67 c 0
 212 49 244 36 297 36 c 0
 396 36 437 117 437 180 c 0
 437 279 374 376 265 376 c 0
EndSplineSet
EndChar

StartChar: q
Encoding: 113 113 16
Width: 475
VWidth: 0
Flags: HW
HStem: -247 30<398.965 483.991> -240 25<252.015 321.191> 0 40<178.47 294.974> 370 28<173.8 281.842> 394 20G<390.5 406>
VStem: 22 67<121.084 280.204> 324 69<-213.471 22.2473> 333 69<45.039 333.574>
LayerCount: 3
Fore
SplineSet
479 -253 m 0xae
 455 -253 393 -247 361 -247 c 0
 333 -247 284 -251 276 -251 c 0
 259 -251 259 -241 259 -232 c 0
 259 -226 263 -215 276 -215 c 0
 284 -215 292 -216 299 -216 c 0
 317 -216 331 -212 331 -185 c 2
 329 20 l 2
 329 34 316 27 308 24 c 0
 277 13 242 -2 209 -2 c 0
 96 -2 14 89 14 199 c 0
 14 375 158 416 240 416 c 0x76
 315 416 356 375 366 375 c 0
 382 375 376 429 402 429 c 0
 412 429 415 419 415 412 c 0
 415 403 408 342 408 320 c 2
 406 -102 l 2x2d
 406 -112 405 -171 405 -180 c 0
 405 -206 409 -213 439 -215 c 0
 475 -217 497 -218 497 -232 c 0
 497 -246 491 -253 479 -253 c 0xae
274 51 m 0
 314 51 331 61 331 77 c 2
 328 286 l 2
 327 334 279 380 224 380 c 0x35
 158 380 85 317 85 216 c 0
 85 118 168 51 274 51 c 0
EndSplineSet
EndChar

StartChar: r
Encoding: 114 114 17
Width: 371
VWidth: 0
Flags: HW
HStem: -1 26<35.0138 100.659 175.828 262.886> 345 60<225 318.5>
VStem: 103 65<32.9292 318.653>
LayerCount: 3
Fore
SplineSet
103 318 m 2
 103 354 38 334 38 357 c 0
 38 367 46 371 59 376 c 0
 106 392 127 420 148 443 c 0
 153 449 155 451 161 451 c 0
 170 451 174 445 174 437 c 0
 174 424 168 405 168 378 c 0
 168 367 169 364 172 364 c 0
 176 364 181 370 186 374 c 0
 211 394 258 429 306 429 c 0
 332 429 360 412 360 381 c 0
 360 339 330 332 307 332 c 0
 279 332 259 361 243 361 c 0
 223 361 209 353 196 341 c 0
 178 324 171 319 171 295 c 0
 171 225 172 139 172 70 c 0
 172 42 191 46 234 42 c 0
 252 40 265 39 265 25 c 0
 265 15 258 8 239 8 c 0
 235 8 188 11 146 11 c 0
 115 11 69 8 49 8 c 0
 35 8 33 15 33 21 c 0
 33 36 52 38 72 39 c 0
 96 41 101 44 101 66 c 2
 103 318 l 2
EndSplineSet
EndChar

StartChar: s
Encoding: 115 115 18
Width: 351
VWidth: 0
Flags: HW
HStem: -10 35<116.707 222.477> 384 33<121.114 222.97>
VStem: 42 32<78.3867 135.962> 44 62<286.255 366.838> 248 66<53.914 135.425> 256 34<301.231 352.923>
LayerCount: 3
Fore
SplineSet
316 124 m 0xd8
 316 54 258 -6 158 -6 c 0
 119 -6 99 -1 80 6 c 0
 58 14 46 21 46 33 c 2
 46 115 l 2
 46 130 54 136 59 136 c 0
 69 136 71 126 73 121 c 0
 98 44 132 30 180 30 c 0
 210 30 251 60 251 100 c 0xe8
 251 183 46 190 46 308 c 0
 46 373 86 425 177 425 c 0
 207 425 235 420 261 413 c 0
 279 408 288 393 288 381 c 2
 288 340 l 2
 288 327 286 314 278 314 c 0
 267 314 261 320 257 331 c 0xd4
 243 366 209 395 166 395 c 0
 130 395 101 375 101 340 c 0
 101 247 316 243 316 124 c 0xd8
EndSplineSet
EndChar

StartChar: t
Encoding: 116 116 19
Width: 352
VWidth: 0
Flags: HW
HStem: -12 49<182.43 274.579> 339 32<46.0586 94.375> 349 49<179.152 319.883>
VStem: 95 74<48.0113 324.492> 107 69<132.097 338.868>
LayerCount: 3
Fore
SplineSet
198 -12 m 0xb0
 117 -12 95 32 95 99 c 0xb0
 95 182 107 292 107 329 c 0
 107 348 95 349 80 349 c 2
 68 349 l 2
 56 349 48 350 48 360 c 2
 48 365 l 2
 48 370 49 374 57 378 c 0xc8
 110 404 137 424 153 463 c 0
 157 473 164 479 172 479 c 0
 182 479 184 471 184 462 c 0
 184 448 174 416 174 409 c 0
 174 403 185 403 194 403 c 0
 204 403 286 410 300 410 c 0
 315 410 320 400 320 388 c 0
 320 361 311 354 297 354 c 2
 193 354 l 2
 180 354 172 350 172 340 c 0xa8
 171 271 170 195 170 129 c 0
 170 71 181 43 227 43 c 0
 272 43 301 77 312 77 c 0
 318 77 323 73 323 67 c 0
 323 34 262 -12 198 -12 c 0xb0
EndSplineSet
EndChar

StartChar: u
Encoding: 117 117 20
Width: 513
VWidth: 0
Flags: HW
HStem: -8 49<187.308 286.458> 1 44<412.516 487.229> 366 28<31.0262 91.2388>
VStem: 91 67<72.1013 350.427> 94 77<171.657 389.5> 347 65<74.331 361.016> 349 73<140.809 362.261>
LayerCount: 3
Fore
SplineSet
92 356 m 0
 92 394 28 364 28 397 c 0
 28 406 41 415 55 415 c 0
 83 415 122 416 147 416 c 0
 167 416 175 405 175 398 c 0xa8
 175 383 166 266 166 197 c 2
 166 184 l 2
 166 122 169 60 249 60 c 0
 289 60 347 80 347 109 c 0
 347 178 348 265 348 338 c 0
 348 404 260 359 260 398 c 0
 260 408 270 416 280 416 c 2
 345 416 l 2
 384 416 398 417 410 417 c 0
 421 417 430 407 430 395 c 0
 430 306 420 168 420 84 c 0
 420 61 433 58 449 58 c 0
 465 58 473 59 487 59 c 0
 493 59 502 58 502 47 c 0
 502 23 478 28 414 11 c 0x64
 404 8 368 -4 360 -4 c 0
 352 -4 348 1 348 9 c 2
 348 48 l 2
 348 63 340 57 334 53 c 0
 284 22 268 4 207 4 c 0
 99 4 90 84 90 162 c 0xb4
 90 227 92 292 92 356 c 0
EndSplineSet
EndChar

StartChar: v
Encoding: 118 118 21
Width: 511
VWidth: 0
Flags: HW
HStem: -16 21G<246 256.5> 364 32<20.0638 82.902 169.01 237.883 289.633 359.748 405.044 479.987>
LayerCount: 3
Fore
SplineSet
350 343 m 0
 350 380 288 350 288 384 c 0
 288 398 306 401 319 401 c 0
 342 401 369 400 392 400 c 0
 416 400 440 403 463 403 c 0
 473 403 480 397 480 388 c 0
 480 371 466 370 449 367 c 0
 437 365 409 369 392 315 c 0
 363 225 315 122 279 30 c 0
 268 2 261 -11 249 -11 c 0
 232 -11 222 30 214 48 c 2
 91 321 l 2
 67 375 14 359 14 390 c 0
 14 402 21 403 38 403 c 0
 79 403 85 400 120 400 c 0
 142 400 193 401 209 401 c 0
 221 401 232 399 232 387 c 0
 232 350 167 378 167 348 c 0
 167 336 212 230 259 128 c 0
 264 117 269 109 272 109 c 0
 274 109 277 113 280 123 c 0
 308 196 350 332 350 343 c 0
EndSplineSet
EndChar

StartChar: w
Encoding: 119 119 22
Width: 787
VWidth: 0
Flags: HWO
HStem: -15 26G<248.5 259 530 540.5> 365 33<24.1372 85.1949 178.456 253.986 302.008 359.976 452.014 520.982 576.015 640.905 691.25 761.947>
VStem: 362 90<295.969 362.117>
LayerCount: 3
Fore
SplineSet
526 383 m 0
 526 368 507 369 489 367 c 0
 471 365 460 364 460 348 c 0
 460 337 522 185 552 121 c 0
 558 108 562 106 569 121 c 0
 602 188 649 317 649 346 c 0
 649 355 643 368 620 371 c 0
 605 373 586 372 586 385 c 0
 586 400 601 400 611 400 c 0
 637 400 662 397 689 397 c 0
 713 397 749 400 760 400 c 0
 769 400 773 395 773 386 c 0
 773 373 764 370 744 366 c 0
 700 357 698 346 676 290 c 0
 638 193 606 117 568 32 c 0
 555 3 552 -9 538 -9 c 0
 528 -9 521 -4 510 25 c 0
 483 97 446 182 409 262 c 0
 400 282 397 293 393 293 c 0
 390 293 387 285 380 268 c 2
 285 35 l 2
 270 -2 262 -12 252 -12 c 0
 240 -12 237 -1 224 27 c 0
 177 133 138 234 94 338 c 0
 81 368 67 373 56 376 c 0
 36 382 25 380 25 394 c 0
 25 402 33 403 41 403 c 0
 79 403 75 400 134 400 c 0
 174 400 220 401 230 401 c 0
 236 401 252 401 252 384 c 0
 252 365 231 370 214 368 c 0
 190 365 177 362 177 349 c 0
 177 329 221 209 267 109 c 0
 272 97 276 93 281 105 c 0
 308 172 364 317 364 344 c 0
 364 355 359 367 328 373 c 0
 315 376 306 376 306 387 c 0
 306 398 313 400 320 400 c 0
 353 398 386 397 419 397 c 0
 446 397 470 399 498 399 c 0
 513 399 526 391 526 383 c 0
EndSplineSet
EndChar

StartChar: x
Encoding: 120 120 23
Width: 527
VWidth: 0
Flags: W
HStem: 0 31<38.1394 114.051 170.023 223.915 274.009 322.99 410.301 467.671> 368 31<40.0181 109.306 306.084 352.991 410.244 477.94>
VStem: 225 66<180.875 223.344>
DStem2: 134 67 178 66 0.61168 0.791106<6.38626 135.922 229.44 365.367> 261 259 143 311 0.572928 -0.819606<-113.619 11.5393 78.8249 210.41>
LayerCount: 3
Fore
SplineSet
214 209 m 2
 143 311 l 2
 125 337 108 366 74 368 c 0
 46 370 40 372 40 383 c 0
 40 394 49 399 61 399 c 2
 142 399 l 2
 166 399 203 401 227 401 c 0
 243 401 247 390 247 384 c 0
 247 365 198 382 198 354 c 0
 198 346 226 307 261 259 c 0
 269 249 275 250 284 261 c 0
 338 328 353 350 353 360 c 0
 353 367 341 366 332 368 c 0
 319 371 306 371 306 385 c 0
 306 393 314 399 333 399 c 0
 344 399 371 397 394 397 c 0
 418 397 436 398 459 398 c 0
 469 398 478 396 478 385 c 0
 478 375 473 372 458 371 c 0
 423 369 425 365 403 347 c 0
 371 320 336 280 302 237 c 0
 294 228 291 222 291 216 c 0
 291 207 298 199 309 185 c 2
 405 53 l 2
 420 33 427 32 452 29 c 0
 465 27 468 21 468 11 c 0
 468 0 455 -1 446 -1 c 0
 424 -1 409 3 372 3 c 0
 361 3 317 0 299 0 c 0
 286 0 274 1 274 16 c 0
 274 23 281 29 298 30 c 0
 309 31 323 33 323 45 c 0
 323 57 279 116 256 148 c 0
 248 160 242 153 232 142 c 0
 209 115 194 91 178 66 c 0
 173 59 170 52 170 47 c 0
 170 38 178 32 195 31 c 0
 211 30 224 27 224 14 c 0
 224 3 213 1 195 1 c 0
 172 1 145 2 122 2 c 0
 98 2 71 0 48 0 c 0
 38 0 38 7 38 13 c 0
 38 31 50 29 69 31 c 0
 105 35 112 42 134 67 c 0
 177 115 182.975585938 127.021484375 216 165 c 0
 222.975585938 173.021484375 225 179 225 185 c 0
 225 192 221 198 214 209 c 2
EndSplineSet
Validated: 1
EndChar

StartChar: y
Encoding: 121 121 24
Width: 510
VWidth: 0
Flags: W
HStem: -239 66<58.2445 133.739> 358 34<414.07 493.441> 371 26<26.0095 85.4452 179.577 236.993 304.115 366.922>
LayerCount: 3
Fore
SplineSet
237 384 m 0xa0
 237 372 227 371 215 371 c 2
 203 371 l 2xa0
 189 371 179 369 179 352 c 0
 179 331 220 222 257 120 c 0
 260 113 263 110 266 110 c 0
 271 110 276 115 279 122 c 0
 311 188 368 324 368 352 c 0
 368 361 364 367 335 367 c 2
 324 367 l 2
 314 367 304 368 304 382 c 0
 304 394 311 399 318 399 c 0
 332 399 387 392 402 392 c 0
 450 392 456 394 468 394 c 0
 485 394 494 392 494 380 c 0
 494 362 478 359 458 358 c 0xc0
 424 357 416 348 406 328 c 0
 330 168 271 21 182 -142 c 0
 160 -182 137 -239 82 -239 c 0
 52 -239 37 -223 37 -200 c 0
 37 -180 54 -161 75 -161 c 0
 95 -161 104 -173 115 -173 c 0
 126 -173 130 -168 136 -159 c 0
 173 -98 218 -5 218 1 c 0
 218 4 202 45 195 64 c 2
 103 326 l 2
 91 360 80 367 57 370 c 0
 39 372 26 372 26 384 c 0
 26 394 34 399 42 399 c 0
 64 399 100 396 140 396 c 0
 164 396 197 397 221 397 c 0
 230 397 237 395 237 384 c 0xa0
EndSplineSet
Validated: 1
EndChar

StartChar: z
Encoding: 122 122 25
Width: 421
VWidth: 0
Flags: W
HStem: 0 37<137.729 316.283> 357 33<116.382 266.999> 362 35<140 266.999>
VStem: 267 114<346 392.5>
DStem2: 62 54 138 49 0.572672 0.819784<39.9819 361.188>
LayerCount: 3
Fore
SplineSet
115 414 m 0xd0
 115 402 123 390 138 390 c 2
 140 390 l 1xd0
 318 397 l 2
 332 398 357 400 366 400 c 0
 377 400 381 397 381 388 c 0
 381 377 371 368 363 359 c 0
 336 325 178 106 138 49 c 0
 132 40 140 37 154 37 c 2
 286 41 l 2
 318 42 318 59 332 93 c 0
 339 111 345 144 356 144 c 0
 362 144 371 140 371 128 c 0
 371 95 367 75 367 53 c 0
 367 44 368 31 368 21 c 0
 368 9 368 0 355 0 c 2
 73 0 l 2
 40 0 36 8 36 17 c 0
 36 25 52 39 62 54 c 2
 208 263 l 2
 223 284 267 340 267 352 c 0
 267 357 265 362 257 362 c 2xb0
 173 357 l 2
 97 352 92 342 74 290 c 0
 72 283 64 281 59 281 c 0
 47 281 45 290 45 299 c 0
 45 320 74 382 84 429 c 0
 87 443 95 454 107 454 c 0
 116 454 120 450 120 443 c 0
 120 435 115 423 115 414 c 0xd0
EndSplineSet
Validated: 1
EndChar

StartChar: A
Encoding: 65 65 26
Width: 693
VWidth: 0
Flags: W
HStem: -5 41<42.8186 75.6718 154.009 244.979 390.114 476.986 573.547 673.813> 294 41<259.001 390> 646 20G<356 367.5>
LayerCount: 3
Fore
SplineSet
259 342 m 0
 259 340 261 335 267 335 c 2
 382 335 l 2
 390 335 390 338 390 339 c 0
 390 351 331 525 329 525 c 0
 325 525 259 349 259 342 c 0
425 36 m 2
 436 36 l 2
 458 36 477 37 477 52 c 0
 477 66 404 294 403 294 c 2
 245 294 l 2
 233 294 216 239 211 226 c 0
 194 179 154 74 154 57 c 0
 154 36 166 36 186 36 c 2
 208 36 l 2
 227 36 245 34 245 16 c 0
 245 6 238 -5 220 -5 c 0
 199 -5 154 -2 124 -2 c 0
 106 -2 59 -8 42 -8 c 0
 21 -8 16 -1 16 14 c 0
 16 21 24 34 44 34 c 0
 62 34 69 34 76 36 c 0
 86 38 89 45 94 56 c 2
 334 634 l 2
 343 655 350 666 362 666 c 0
 373 666 378 652 381 642 c 0
 402 567 423 505 446 431 c 2
 514 218 l 1
 529 167 560 92 570 64 c 0
 580 37 597 40 632 37 c 0
 645 36 674 36 674 18 c 0
 674 9 669 -3 643 -3 c 0
 613 -3 550 0 529 0 c 0
 507 0 447 -1 416 -1 c 0
 396 -1 390 6 390 18 c 0
 390 35 406 36 425 36 c 2
EndSplineSet
Validated: 1
EndChar

StartChar: B
Encoding: 66 66 27
Width: 572
VWidth: 0
Flags: W
HStem: -1 43<19.0846 120.713 219.512 394.277> 348 25<212.159 342.719> 610 34<31.1964 123.031> 618 33<216.484 345.344>
VStem: 124 87<53.0174 347.843 373 607.817> 428 85<431.419 557.631> 460 89<116.614 272.587>
LayerCount: 3
Fore
SplineSet
428 496 m 0xdc
 428 580 338 618 258 618 c 2
 234 618 l 2
 218 618 216 614 216 586 c 2
 214 417 l 2
 214 406 212 395 212 387 c 0
 212 378 214 373 224 373 c 2
 244 373 l 2
 275 373 308 374 338 383 c 0
 386 396 428 434 428 496 c 0xdc
128 572 m 0
 126 608 104 610 80 610 c 0
 69 610 57 608 47 608 c 0
 34 608 29 610 29 620 c 0
 29 631 41 640 82 644 c 0xea
 145 649 245 651 285 651 c 0
 421 651 513 604 513 500 c 0xdc
 513 418 432 377 432 374 c 0
 432 372 549 362 549 212 c 0xda
 549 95 472 27 373 8 c 0
 337 2 296 -1 253 -1 c 0
 223 -1 194 0 164 0 c 2
 46 0 l 2
 26 0 19 7 19 23 c 0
 19 36 32 39 47 39 c 2
 85 39 l 2
 101 39 115 39 121 51 c 0
 126 59 126 72 126 86 c 2
 126 119 l 2
 126 158 124 201 124 233 c 0
 124 324 130 413 130 504 c 0
 130 526 129 549 128 572 c 0
217 71 m 0
 217 47 274 42 306 42 c 0
 396 42 460 92 460 176 c 0
 460 304 390 348 252 348 c 0
 216 348 211 348 211 333 c 0
 211 257 217 151 217 71 c 0
EndSplineSet
Validated: 1
EndChar

StartChar: C
Encoding: 67 67 28
Width: 622
VWidth: 0
Flags: W
HStem: -12 40<278.568 479.875> 622 38<292.859 476.3>
VStem: 32 102<196.161 432.086> 561 36<104.003 169.346>
LayerCount: 3
Fore
SplineSet
571 546 m 0
 571 535 563 531 556 531 c 0
 543 531 535 552 529 560 c 0
 510 586 467 622 388 622 c 0
 229 622 134 491 134 345 c 0
 134 111 250 28 373 28 c 0
 475 28 514 62 544 104 c 0
 551 113 556 122 561 134 c 0
 568 151 569 170 583 170 c 0
 592 170 597 165 597 153 c 0
 597 119 584 104 580 60 c 0
 578 38 566 35 535 21 c 0
 462 -12 419 -12 350 -12 c 0
 149 -12 32 141 32 310 c 0
 32 472 139 660 390 660 c 0
 458 660 502 647 538 632 c 0
 554 626 557 625 560 606 c 0
 563 591 571 554 571 546 c 0
EndSplineSet
Validated: 1
EndChar

StartChar: D
Encoding: 68 68 29
Width: 725
VWidth: 0
Flags: W
HStem: -5 37<18.0645 103.406 236.893 441.75> 608 40<17.0606 116.336 203.997 375.432>
VStem: 107 90<63.6289 576.475> 117 87<325.875 604.5> 595 101<201.926 424.429>
LayerCount: 3
Back
SplineSet
18 12 m 4
 18 29 38 30 67 35 c 4
 100 40 107 43 107 74 c 4
 107 89 103 119 103 152 c 6
 103 162 l 5
 107 366 l 6
 107 417 117 568 117 577 c 4
 117 615 104 600 50 608 c 4
 38 610 17 615 17 626 c 4
 17 644 24 648 50 648 c 6
 176 648 l 6
 318 648 427 646 514 608 c 4
 628 558 696 450 696 310 c 4
 696 238 650 58 479 14 c 4
 425 0 402 -5 310 -5 c 4
 265 -5 199 0 157 0 c 4
 115 0 66 -5 51 -5 c 4
 18 -5 18 2 18 12 c 4
362 32 m 4
 421 32 467 59 508 94 c 4
 571 148 595 228 595 310 c 4
 595 482 476 568 345 596 c 4
 312 603 269 608 238 608 c 6
 222 608 l 6
 200 608 204 604 204 592 c 4
 202 465 197 338 197 211 c 4
 197 168 202 102 212 74 c 4
 225 39 294 32 362 32 c 4
EndSplineSet
Fore
SplineSet
18 12 m 0xd8
 18 29 38 30 67 35 c 0
 100 40 107 43 107 74 c 0
 107 89 103 119 103 152 c 2
 107 366 l 2xe8
 107 417 117 568 117 577 c 0
 117 615 104 600 50 608 c 0
 38 610 17 615 17 626 c 0
 17 644 24 648 50 648 c 2
 176 648 l 2
 318 648 427 646 514 608 c 0
 628 558 696 450 696 310 c 0
 696 238 650 58 479 14 c 0
 425 0 402 -5 310 -5 c 0
 265 -5 199 0 157 0 c 0
 115 0 66 -5 51 -5 c 0
 18 -5 18 2 18 12 c 0xd8
362 32 m 0
 421 32 467 59 508 94 c 0
 571 148 595 228 595 310 c 0
 595 482 476 568 345 596 c 0
 312 603 269 608 238 608 c 2
 222 608 l 2
 200 608 204 604 204 592 c 0xd8
 202 465 197 338 197 211 c 0
 197 168 202 102 212 74 c 0
 225 39 294 32 362 32 c 0
EndSplineSet
Validated: 1
EndChar

StartChar: E
Encoding: 69 69 30
Width: 608
VWidth: 0
Flags: W
HStem: -4 39<22.0376 120.801> 0 40<214 506.023> 327 29<214.561 430.231> 606 39<262.751 498.744> 614 35<216.668 461.84> 621 34<40.0339 136.457>
VStem: 124 90<40.6894 323.786> 134 78<153.785 326.959 356.384 611.34> 444 32<212.601 315 362.625 449.749> 520 28<503.352 574.335>
LayerCount: 3
Back
SplineSet
528 645 m 4x33
 544 645 548 629 548 617 c 6
 548 518 l 6
 548 508 538 503 531 503 c 4
 522 503 521 511 520 515 c 4
 509 604 487 600 448 606 c 4
 420 610 297 614 261 614 c 4
 204 614 217 602 214 516 c 4
 213 482 212 447 212 405 c 4x3380
 212 366 213 356 242 356 c 4
 283 356 323 355 364 355 c 4
 437 355 437 363 442 392 c 4
 445 411 445 450 462 450 c 4
 473 450 474 442 474 435 c 4
 474 421 473 381 473 344 c 4
 473 262 476 241 476 228 c 4
 476 220 472 212 464 212 c 4
 441 212 446 246 444 268 c 4
 441 297 436 323 404 324 c 6
 239 327 l 6
 216 327 212 325 212 312 c 4
 212 289 213 258 213 233 c 4
 213 159 214 92 214 59 c 4
 214 45 231 40 244 40 c 6
 425 43 l 6
 501 44 532 66 555 122 c 4
 559 133 563 158 575 158 c 4
 586 158 588 151 588 137 c 4x7540
 588 109 577 80 574 62 c 4
 570 39 570 16 569 7 c 4
 568 -2 558 0 553 0 c 4
 509 1 465 1 422 1 c 4
 335 1 248 0 158 0 c 4x7180
 109 0 70 -4 46 -4 c 4
 35 -4 22 1 22 10 c 4
 22 32 23 35 37 35 c 4
 47 35 77 33 97 33 c 4
 121 33 118 38 124 75 c 4xa580
 129 105 132 260 134 394 c 4
 135 494 138 580 138 594 c 4
 138 619 116 621 90 621 c 6
 62 621 l 6
 50 621 40 626 40 637 c 4
 40 645 45 655 64 655 c 4xab
 86 655 133 649 167 649 c 4
 263 649 430 645 528 645 c 4x33
EndSplineSet
Fore
SplineSet
528 645 m 0x31c0
 544 645 548 629 548 617 c 2
 548 518 l 2
 548 508 538 503 531 503 c 0
 522 503 521 511 520 515 c 0
 509 604 487 600 448 606 c 0x31c0
 420 610 297 614 261 614 c 0
 228 614 215 609 215 584 c 0
 215 556 214 542 214 516 c 0x2ac0
 213 482 212 447 212 405 c 0
 212 366 213 356 242 356 c 0
 283 356 323 355 364 355 c 0
 437 355 437 363 442 392 c 0
 445 411 445 450 462 450 c 0
 473 450 474 442 474 435 c 0
 474 421 473 381 473 344 c 0
 473 262 476 241 476 228 c 0
 476 220 472 212 464 212 c 0
 441 212 446 246 444 268 c 0
 441 297 436 323 404 324 c 2
 239 327 l 2
 216 327 212 325 212 312 c 0x29c0
 212 289 213 258 213 233 c 0
 213 159 214 92 214 59 c 0
 214 45 231 40 244 40 c 2
 425 43 l 2
 501 44 532 66 555 122 c 0
 559 133 563 158 575 158 c 0
 586 158 588 151 588 137 c 0
 588 109 577 80 574 62 c 0
 570 39 570 16 569 7 c 0
 568 -2 558 0 553 0 c 0
 509 1 465 1 422 1 c 0
 335 1 248 0 158 0 c 0x6ac0
 109 0 70 -4 46 -4 c 0
 35 -4 22 1 22 10 c 0
 22 32 23 35 37 35 c 0
 47 35 77 33 97 33 c 0
 121 33 118 38 124 75 c 0xa2c0
 129 105 132 260 134 394 c 0
 135 494 138 580 138 594 c 0
 138 619 116 621 90 621 c 2
 62 621 l 2
 50 621 40 626 40 637 c 0
 40 645 45 655 64 655 c 0xa5c0
 86 655 133 649 167 649 c 0x29c0
 263 649 430 645 528 645 c 0x31c0
EndSplineSet
Validated: 1
EndChar

StartChar: F
Encoding: 70 70 31
Width: 577
VWidth: 0
Flags: W
HStem: -4 40<22.0124 117.2 213.177 307.574> 311 38<210.451 420.984> 606 42<212.189 478.27> 615 36<26.1604 120.23>
VStem: 121 88<42.5259 310.937 349.094 601.931> 428 35<218.559 302.255 359.664 439.792> 507 32<497.084 576.334>
LayerCount: 3
Fore
SplineSet
211 68 m 0xee
 211 38 237 41 264 40 c 0
 284 39 308 36 308 20 c 0
 308 6 298 2 280 2 c 0
 273 2 219 0 168 0 c 0
 116 0 64 -4 38 -4 c 0
 27 -4 22 7 22 16 c 0
 22 34 39 36 66 36 c 0
 96 36 117 41 118 61 c 0
 119 147 121 261 121 355 c 0
 121 480 122 561 122 580 c 0
 122 601 117 614 97 614 c 2
 50 615 l 2
 34 615 26 622 26 636 c 0
 26 649 40 651 53 651 c 0xde
 79 651 78 650 152 650 c 2
 517 648 l 2
 533 648 541 640 541 628 c 2
 539 518 l 2
 539 508 529 497 522 497 c 0
 510 497 507 510 507 524 c 0
 506 564 488 583 480 586 c 0
 444 602 349 606 334 606 c 0
 304 606 278 606 248 604 c 0
 209 601 213 601 212 580 c 0
 210 515 210 449 210 386 c 0
 210 355 211 349 225 349 c 2
 363 352 l 2
 427 353 425 371 428 394 c 0
 430 413 429 440 448 440 c 0
 457 440 463 432 463 420 c 0
 463 406 461 371 461 334 c 0
 461 300 466 248 466 235 c 0
 466 227 458 218 450 218 c 0
 436 218 433 230 431 252 c 0
 426 297 420 309 371 309 c 2
 239 311 l 2
 210 311 209 310 209 287 c 0
 209 213 211 105 211 68 c 0xee
EndSplineSet
Validated: 1
EndChar

StartChar: G
Encoding: 71 71 32
Width: 769
VWidth: 0
Flags: W
HStem: -16 37<298.172 489.319> 267 34<406.1 524.859> 634 38<286.419 496.106>
VStem: 32 91<205.667 445.898> 527 80<48.0508 225.602> 532 82<77.8903 259.875> 580 33<486.463 557.216>
LayerCount: 3
Fore
SplineSet
392 21 m 0xf2
 476 21 525 52 527 76 c 0xf8
 530 116 532 177 532 228 c 0
 532 264 499 264 464 267 c 0
 437 269 405 274 405 288 c 0
 405 300 413 301 423 301 c 2
 566 301 l 2
 612 301 658 301 704 302 c 0
 721 302 723 294 723 288 c 0
 723 256 616 279 614 250 c 2xf4
 607 57 l 2xf8
 606 32 603 36 576 24 c 0
 532 4 445 -16 373 -16 c 0
 134 -16 32 149 32 325 c 0
 32 497 156 672 418 672 c 0
 479 672 557 651 596 628 c 0
 608 621 612 617 612 608 c 0
 612 600 611 600 611 566 c 0
 611 546 613 515 613 502 c 0
 613 494 612 486 602 486 c 0
 582 486 586 499 580 522 c 0
 561 589 499 634 399 634 c 0
 168 634 123 450 123 331 c 0
 123 133 252 21 392 21 c 0xf2
EndSplineSet
Validated: 1
EndChar

StartChar: H
Encoding: 72 72 33
Width: 765
VWidth: 0
Flags: W
HStem: 0 34<36.0494 117.648 442.813 542.85> 305 44<210.043 548.096> 613 34<50.0236 123.897 216.981 305.145 463.033 550.588 633.835 705.982>
VStem: 119 91<37.343 304.975 349.005 565.236> 128 88<350.963 609.663> 544 89<40.0674 282.072> 551 82<62.375 304.866 348.068 611.996>
LayerCount: 3
Back
SplineSet
210 62 m 4xf4
 210 14 302 52 302 17 c 4
 302 1 292 -3 274 -3 c 4
 267 -3 235 -1 184 -1 c 4
 132 -1 86 0 60 0 c 4
 42 0 36 8 36 18 c 4
 36 33 53 34 74 34 c 6
 84 34 l 6
 103 34 119 35 119 62 c 4xf4
 119 78 120 217 122 346 c 4
 124 452 128 551 128 566 c 4
 128 595 123 610 102 610 c 6
 68 611 l 6
 56 611 50 618 50 631 c 4
 50 644 58 645 80 645 c 4
 102 645 124 647 174 647 c 4
 234 647 272 650 287 650 c 4
 295 650 306 649 306 634 c 4
 306 617 272 613 254 613 c 6
 241 613 l 6
 218 613 218 612 216 584 c 4xe8
 210 515 210 458 210 376 c 4
 210 356 211 349 233 349 c 6
 526 348 l 6
 549 348 548 358 549 394 c 4
 551 489 551 567 551 580 c 4
 551 606 551 609 529 612 c 4
 509 615 463 617 463 630 c 4
 463 645 475 647 497 647 c 4
 521 647 563 646 592 646 c 4
 605 646 668 645 691 645 c 4
 710 645 706 629 706 628 c 4
 706 614 681 614 662 614 c 4
 639 614 633 613 633 581 c 4
 633 578 633 575 633 572 c 6xf2
 634 506 l 6
 635 458 635 402 635 347 c 4
 635 236 633 119 633 68 c 4
 633 17 733 46 733 15 c 4
 733 2 728 -3 710 -3 c 4
 703 -3 649 2 598 2 c 4
 546 2 485 -5 459 -5 c 4
 448 -5 442 3 442 12 c 4
 442 34 474 30 501 31 c 4
 525 32 543 28 544 62 c 4
 545 68 549 203 549 286 c 4
 549 304 545 305 518 305 c 6
 237 305 l 6
 213 305 210 304 210 287 c 4
 210 255 211 222 211 191 c 4
 211 135 210 86 210 62 c 4xf4
EndSplineSet
Fore
SplineSet
210 62 m 0xf4
 210 14 302 52 302 17 c 0
 302 1 292 -3 274 -3 c 0
 267 -3 235 -1 184 -1 c 0
 132 -1 86 0 60 0 c 0
 42 0 36 8 36 18 c 0
 36 33 53 34 74 34 c 2
 84 34 l 2
 103 34 119 35 119 62 c 0xf4
 119 78 120 217 122 346 c 0
 124 452 128 551 128 566 c 0
 128 595 123 610 102 610 c 2
 68 611 l 2
 56 611 50 618 50 631 c 0
 50 644 58 644 80 645 c 0
 102 646 124 647 174 647 c 0
 234 647 272 650 287 650 c 0
 295 650 306 649 306 634 c 0
 306 617 272 613 254 613 c 2
 241 613 l 2
 218 613 218 612 216 584 c 0xe8
 210 515 210 458 210 376 c 0
 210 356 211 349 233 349 c 2
 526 348 l 2
 549 348 548 358 549 394 c 0
 551 489 551 567 551 580 c 0
 551 606 551 609 529 612 c 0
 509 615 463 617 463 630 c 0
 463 645 475 647 497 647 c 0
 521 647 570 646 592 646 c 0
 605 646 668 645 691 645 c 0
 710 645 706 629 706 628 c 0
 706 614 681 614 662 614 c 0
 639 614 633 613 633 581 c 0
 633 578 633 575 633 572 c 2xf2
 634 506 l 2
 635 458 635 402 635 347 c 0
 635 236 633 119 633 68 c 0
 633 17 733 46 733 15 c 0
 733 2 728 -3 710 -3 c 0
 703 -3 649 2 598 2 c 0
 546 2 485 -5 459 -5 c 0
 448 -5 442 3 442 12 c 0
 442 34 474 30 501 31 c 0
 525 32 543 28 544 62 c 0
 545 68 549 203 549 286 c 0
 549 304 545 305 518 305 c 2
 237 305 l 2
 213 305 210 304 210 287 c 0
 210 255 211 222 211 191 c 0
 211 135 210 86 210 62 c 0xf4
EndSplineSet
Validated: 1
EndChar

StartChar: I
Encoding: 73 73 34
Width: 327
VWidth: 0
Flags: W
HStem: -2 34<16.6386 114.385 214.771 302.508> 615 33<21.4141 119.185 218.666 307.991>
VStem: 116 90<40.9034 317.5> 126 82<328.819 600.566>
LayerCount: 3
Fore
SplineSet
280 615 m 0xd0
 259 615 232 614 218 601 c 0
 208 592 208 566 208 538 c 0xd0
 208 405 206 148 206 69 c 0
 206 41 240 35 269 32 c 0
 289 30 303 29 303 19 c 0
 303 8.48855253093 295 -2 278 -2 c 0
 271 -2 219 0 168 0 c 0
 116 0 59 -4 33 -4 c 0
 22 -4 16 1 16 10 c 0
 16 32 41 29 66 31 c 0
 101 34 116 32 116 62 c 0xe0
 116 91 126 543 126 576 c 0
 126 612 94 613 65 614 c 0
 42 615 21 618 21 635 c 0
 21 650 30 651 44 651 c 0
 73 651 83 646 169 646 c 0
 238 646 258 648 273 648 c 0
 296 648 308 647 308 632 c 0
 308 616 296 615 280 615 c 0xd0
EndSplineSet
Validated: 1
EndChar

StartChar: J
Encoding: 74 74 35
Width: 327
VWidth: 0
Flags: W
HStem: -242 39<-27.5714 67.9869> 611 35<15.0524 119.695 216.294 299.637>
VStem: -108 78<-198.96 -116.5> 124 89<-97.6426 599.671>
LayerCount: 3
Fore
SplineSet
-38 -59 m 0
 -12 -59 12 -76 12 -105 c 0
 12 -148 -30 -147 -30 -173 c 0
 -30 -196 -8 -203 18 -203 c 0
 89 -203 114 -119 116 -53 c 0
 117 -17 124 56 124 96 c 0
 124 300 124 535 123 578 c 0
 122 609 98 611 69 611 c 2
 36 611 l 2
 23 611 15 613 15 625 c 0
 15 638 16 646 35 646 c 0
 50 646 74 645 103 645 c 0
 118 645 133 646 150 646 c 2
 281 646 l 2
 295 646 300 641 300 632 c 0
 300 616 286 618 266 614 c 0
 246 610 222 608 216 600 c 0
 211 593 211 585 211 571 c 0
 211 427 213 234 213 106 c 0
 213 -48 194 -115 158 -164 c 0
 122 -212 72 -242 6 -242 c 0
 -63 -242 -108 -201 -108 -137 c 0
 -108 -96 -82 -59 -38 -59 c 0
EndSplineSet
Validated: 1
EndChar

StartChar: K
Encoding: 75 75 36
Width: 703
VWidth: 0
Flags: W
HStem: 0 38<16.1353 113.985 201.932 304.977 352.07 444.99 573.288 672.539> 311 37<204.003 237.016> 601 36<22.3015 118.851> 609 33<212.869 283.818 362.208 445.527> 619 39<531.161 633.883>
VStem: 114 86<40.4258 310.862 348 598.61> 119 90<359.62 597.55>
DStem2: 253 380 310 388 0.696983 0.717087<14.4671 287.472>
LayerCount: 3
Fore
SplineSet
352 20 m 0xca
 352 36 376 37 402 38 c 0
 432 39 445 43 445 53 c 0
 445 60 439 69 427 82 c 2
 234 298 l 2
 228 304 217 315 210 311 c 0
 204 308 200 308 200 294 c 2
 200 69 l 2
 200 41 223 38 248 38 c 2
 271 38 l 2
 290 38 305 35 305 20 c 0
 305 0 297 0 279 0 c 2
 168 0 l 2
 114 0 77 -1 49 -1 c 0
 37 -1 16 0 16 17 c 0
 16 34 34 34 74 36 c 0
 93 37 114 34 114 58 c 0xcc
 114 68 113 126 113 201 c 0
 113 323 119 565 119 581 c 0
 119 596 96 599 75 601 c 0
 47 603 22 599 22 614 c 0
 22 631 30 637 57 637 c 2
 126 637 l 2xe2
 172 637 208 642 253 642 c 0
 277 642 284 637 284 628 c 0
 284 614 274 612 256 609 c 0xd2
 228 605 210 606 209 582 c 0
 206 525 204 412 204 357 c 0
 204 348 204 348 217 348 c 0
 223 348 227 355 253 380 c 0
 281 407 341 472 421 553 c 0
 428 560 447 579 447 593 c 0
 447 600 442 607 426 608 c 0
 394 611 362 607 362 628 c 0
 362 642 366 644 404 645 c 0
 424 646 483 649 496 650 c 0
 530 652 600 658 613 658 c 0
 630 658 634 648 634 640 c 0
 634 624 616 622 599 619 c 0
 585 617 578 615 560 612 c 0
 522 605 489 562 452 529 c 0
 428 508 345 423 310 388 c 0
 297 375 291 368 291 363 c 0
 291 356 301 351 316 335 c 0
 375 273 559 60 588 45 c 0
 598 40 611 38 624 38 c 0
 649 37 673 41 673 24 c 0
 673 2 655 -2 636 -2 c 0
 606 -2 593 0 526 0 c 2
 377 0 l 2
 374 0 352 0 352 20 c 0xca
EndSplineSet
Validated: 1
EndChar

StartChar: L
Encoding: 76 76 37
Width: 583
VWidth: 0
Flags: W
HStem: 0 43<213.396 443.274> 620 31<19.562 123.675> 629 31<228.177 333.586>
VStem: 126 83<47.3108 616.735>
LayerCount: 3
Fore
SplineSet
213 70 m 0xb0
 213 61 216 43 234 43 c 0
 271 43 425 47 467 61 c 0
 532 82 541 175 559 175 c 0
 568 175 572 164 572 149 c 0
 572 133 569 112 567 92 c 0
 564 57 564 25 564 22 c 0
 564 6 548 -2 530 -2 c 0
 523 -2 219 0 168 0 c 0
 116 0 52 -5 26 -5 c 0
 15 -5 4 0 4 10 c 0
 4 42 120 18 120 74 c 0
 120 103 126 546 126 579 c 0
 126 618 124 617 63 620 c 0
 41 621 19 624 19 639 c 0
 19 652 26 653 31 653 c 0
 56 653 57 651 138 651 c 0xd0
 244 651 280 660 311 660 c 0
 322 660 334 659 334 650 c 0
 334 632 326 631 306 629 c 0
 225 620 210 633 210 531 c 0
 210 480 209 424 209 358 c 0
 209 241 210 117 213 70 c 0xb0
EndSplineSet
Validated: 1
EndChar

StartChar: M
Encoding: 77 77 38
Width: 944
VWidth: -2
Flags: W
HStem: -2 35<31.0139 121.955 189.75 308.404 606.169 705.154 813.565 920.851> 615 38<44.7185 147.991>
VStem: 127 53<42.2689 303.777> 712 92<42.1355 325.543>
LayerCount: 3
Fore
SplineSet
446 26 m 2
 446 26 197 521 192 521 c 0
 183 521 180 201 180 110 c 0
 180 44 186 41 240 35 c 0
 276 31 309 33 309 11 c 0
 309 -4 296 -5 277 -5 c 0
 251 -5 199 0 160 0 c 0
 128 0 73 -2 51 -2 c 0
 42 -2 31 0 31 15 c 0
 31 33 50 32 71 33 c 0
 124 36 125 44 127 85 c 0
 132 222 148 584 148 597 c 0
 148 611 136 608 100 615 c 0
 71 621 44 622 44 638 c 0
 44 650 51 653 62 653 c 2
 217 653 l 2
 223 653 235 652 239 645 c 2
 469 190 l 2
 481 166 487 155 491 155 c 0
 493 155 499 168 511 196 c 2
 680 583 l 2
 689 605 702 650 720 650 c 0
 731 650 771 648 798 648 c 0
 827 648 855 649 884 650 c 0
 899 650 909 645 909 631 c 0
 909 604 811 618 795 597 c 0
 791 591 790 581 790 570 c 0
 790 504 801 122 804 74 c 0
 806 37 841 37 873 33 c 0
 898 30 921 29 921 14 c 0
 921 -3 910 -3 885 -3 c 0
 874 -3 817 -1 761 -1 c 0
 705 -1 651 -6 642 -6 c 0
 608 -6 606 1 606 14 c 0
 606 30 632 30 658 32 c 0
 692 34 712 42 712 80 c 2
 712 80 711 529 706 529 c 0
 698 529 485 24 485 24 c 2
 480 12 473 6 466 6 c 0
 458 6 453 13 446 26 c 2
EndSplineSet
Validated: 1
EndChar

StartChar: N
Encoding: 78 78 39
Width: 758
VWidth: 0
Flags: W
HStem: -27 21G<610 622> -3 37<16.0139 112.222 163.467 276.849> 619 40<7.09814 101.58> 630 34<461.084 572.923 637.566 717.951>
VStem: 107 41<348.284 506.991> 116 45<38.2014 265.977> 579 49<359.8 620.713> 592 41<131.008 383.023>
DStem2: 171 628 176 482 0.644871 -0.764291<79.7102 647.831>
LayerCount: 3
Fore
SplineSet
171 628 m 2xe8
 485 253 l 2
 514 219 580 131 587 131 c 0
 592 131 592 142 592 179 c 0xe9
 592 215 585 473 579 574 c 0
 577 605 581 615 556 624 c 0
 546 628 532 629 518 630 c 0
 490 632 461 633 461 648 c 0
 461 658 464 667 485 667 c 0
 506 667 504 664 591 664 c 0
 642 664 669 666 692 666 c 0
 701 666 718 664 718 648 c 0
 718 632 702 631 683 630 c 0
 666 629 649 631 637 621 c 0
 630 615 629 601 629 573 c 0
 629 546 628 454 628 427 c 0xd2
 628 266 633 153 633 -3 c 0
 633 -27 624 -27 620 -27 c 0
 600 -27 603 -24 500 98 c 2
 176 482 l 2
 163 497 155 507 151 507 c 0
 148 507 148 494 148 482 c 0xd9
 148 378 158 129 161 62 c 0
 162 34 200 35 221 34 c 0
 256 32 277 33 277 13 c 0
 277 -2 264 -3 245 -3 c 0
 219 -3 179 0 140 0 c 0
 108 0 58 -2 36 -2 c 0
 27 -2 16 0 16 15 c 0
 16 33 35 33 56 33 c 0
 112 33 116 44 116 85 c 0xd4
 116 217 109 457 107 548 c 0
 106 610 102 611 61 619 c 0
 41 623 7 620 7 640 c 0
 7 657 16 659 26 659 c 2
 64 659 l 2
 82 659 101 661 119 661 c 0
 142 661 149 655 171 628 c 2xe8
EndSplineSet
Validated: 1
Layer: 2
SplineSet
171 628 m 6xec
 485 253 l 6
 514 219 580 131 587 131 c 4
 592 131 592 142 592 179 c 4
 592 215 590 470 589 574 c 4
 589 619 575 627 528 630 c 4
 500 632 471 633 471 648 c 4
 471 658 474 667 495 667 c 4
 516 667 514 664 601 664 c 4
 652 664 679 666 702 666 c 4
 711 666 728 664 728 648 c 4
 728 632 712 631 693 630 c 4xdc
 650 627 640 630 639 573 c 4
 636 365 633 193 633 -3 c 4
 633 -27 624 -27 620 -27 c 4
 600 -27 603 -24 500 98 c 6
 176 482 l 6
 163 497 155 507 151 507 c 4
 148 507 148 494 148 482 c 4
 148 378 150 129 153 62 c 4
 154 34 190 35 211 34 c 4
 246 32 267 33 267 13 c 4
 267 -2 254 -3 235 -3 c 4
 209 -3 169 0 130 0 c 4
 98 0 48 -2 26 -2 c 4
 17 -2 6 0 6 15 c 4
 6 33 25 33 46 33 c 4
 102 33 106 44 106 85 c 4
 106 215 107 408 107 548 c 4
 107 610 102 611 61 619 c 4
 41 623 7 620 7 640 c 4
 7 657 16 659 26 659 c 6
 64 659 l 6
 82 659 101 661 119 661 c 4
 142 661 149 655 171 628 c 6xec
171 628 m 2xd0
 485 253 l 2
 514 219 580 131 587 131 c 0
 592 131 592 142 592 179 c 0xd2
 592 215 585 473 579 574 c 0
 577 605 581 615 556 624 c 0
 546 628 532 629 518 630 c 0
 490 632 461 633 461 648 c 0
 461 658 464 667 485 667 c 0
 506 667 504 664 591 664 c 0
 642 664 669 666 692 666 c 0
 701 666 718 664 718 648 c 0
 718 632 702 631 683 630 c 0
 666 629 649 631 637 621 c 0
 630 615 629 601 629 573 c 0
 629 546 628 454 628 427 c 0xa4
 628 266 633 153 633 -3 c 0
 633 -27 624 -27 620 -27 c 0
 600 -27 603 -24 500 98 c 2
 176 482 l 2
 163 497 155 507 151 507 c 0
 148 507 148 494 148 482 c 0xb2
 148 378 158 129 161 62 c 0
 162 34 200 35 221 34 c 0
 256 32 277 33 277 13 c 0
 277 -2 264 -3 245 -3 c 0
 219 -3 179 0 140 0 c 0
 108 0 58 -2 36 -2 c 0
 27 -2 16 0 16 15 c 0
 16 33 35 33 56 33 c 0
 112 33 116 44 116 85 c 0xa8
 116 217 109 457 107 548 c 0
 106 610 102 611 61 619 c 0
 41 623 7 620 7 640 c 0
 7 657 16 659 26 659 c 2
 64 659 l 2
 82 659 101 661 119 661 c 0
 142 661 149 655 171 628 c 2xd0
EndSplineSet
EndChar

StartChar: O
Encoding: 79 79 40
Width: 786
VWidth: 0
Flags: W
HStem: -19 40<307.376 481.249> 622 44<274.636 459.692>
VStem: 36 106<202.247 450.859> 621 107<188.728 433.798>
LayerCount: 3
Fore
SplineSet
728 322 m 0
 728 94 570 -19 374 -19 c 0
 194 -19 36 86 36 326 c 0
 36 548 204 666 380 666 c 0
 576 666 728 542 728 322 c 0
367 622 m 0
 217.726469659 622 142 481.448263612 142 333 c 0
 142 132 270 21 392 21 c 0
 523 21 621 126 621 298 c 0
 621 496 506 622 367 622 c 0
EndSplineSet
Validated: 1
EndChar

StartChar: P
Encoding: 80 80 41
Width: 557
VWidth: 0
Flags: W
HStem: -6 39<23.0049 111.878 215.082 323.975> 264 49<244.303 379.422> 618 41<215.686 355.971>
VStem: 113 99<41.3421 302.993 320.308 325> 124 86<348.51 614.836> 437 93<380.09 541.97>
LayerCount: 3
Fore
SplineSet
214 558 m 0xec
 213 540 210 442 210 375 c 0
 210 341 212 330 223 324 c 0
 239 316 279 313 298 313 c 0
 387 313 437 367 437 463 c 0
 437 554 370 618 268 618 c 0
 208 618 216 612 214 558 c 0xec
212 277 m 2xf4
 212 66 l 2
 212 40 235 41 260 37 c 0
 290 33 324 32 324 14 c 0
 324 -2 317 -7 299 -7 c 0
 292 -7 219 0 168 0 c 0
 116 0 69 -6 43 -6 c 0
 29 -6 22 -3 22 6 c 0
 22 33 50 29 78 33 c 0
 97 35 113 41 113 60 c 0xf4
 113 89 124 560 124 593 c 0xec
 124 636 26 602 26 640 c 0
 26 657 38 661 53 661 c 0
 75 661 122 656 172 656 c 0
 233 656 265 659 327 659 c 0
 402 659 530 638 530 484 c 0
 530 387 476 264 330 264 c 0
 264 264 217 303 216 303 c 0
 214 303 212 293 212 277 c 2xf4
EndSplineSet
Validated: 1
EndChar

StartChar: Q
Encoding: 81 81 42
Width: 767
VWidth: 0
Flags: W
HStem: -245 58<647.481 753.002> 622 41<279.119 463.164>
VStem: 42 93<201.561 441.843> 628 94<187.703 434.767>
LayerCount: 3
Fore
SplineSet
367 622 m 0
 218 622 135 483 135 335 c 0
 135 134 262 12 384 12 c 0
 515 12 628 124 628 296 c 0
 628 494 519 622 367 622 c 0
380 663 m 0
 579 663 722 534 722 321 c 0
 722 -8 415 -5 415 -14 c 0
 415 -20 628 -187 721 -187 c 0
 767 -187 774 -175 784 -175 c 0
 793 -175 797 -190 797 -194 c 0
 797 -202 784 -210 774 -214 c 0
 744 -227 706 -245 668 -245 c 0
 528 -245 454 -130 314 -30 c 0
 302 -22 292 -11 276 -6 c 0
 142 33 42 146 42 310 c 0
 42 530 193 663 380 663 c 0
EndSplineSet
Validated: 1
EndChar

StartChar: R
Encoding: 82 82 43
Width: 679
VWidth: 0
Flags: W
HStem: 0 31<19.4814 110.113 555.26 654.083> 322 25<209.393 278.117> 618 36<34.4535 122.307 210.176 314.935>
VStem: 113 95<40.0172 317.957> 125 83<317.957 322 347.231 615.197> 398 92<408.098 551.5>
LayerCount: 3
Fore
SplineSet
208 292 m 2xf4
 208 66 l 2
 208 40 228 40 258 34 c 0
 288 28 316 24 316 11 c 0
 316 -5 308 -7 296 -7 c 0
 289 -7 219 0 168 0 c 0
 116 0 64 -6 38 -6 c 0
 24 -6 17 -3 17 6 c 0
 17 33 60 27 88 31 c 0
 107 33 110 41 113 60 c 0xf4
 116 85 125 447 125 561 c 0xec
 125 578 124 589 124 593 c 0
 122 615 99 618 76 618 c 2
 63 618 l 2
 47 618 34 619 34 632 c 0
 34 648 50 650 66 652 c 0
 75 653 86 654 98 654 c 2
 164 654 l 2
 189 654 217 656 246 656 c 0
 371 656 490 626 490 496 c 0
 490 413 450 368 387 344 c 0
 366 336 356 334 356 328 c 0
 356 324 361 318 370 306 c 0
 422 243 464 164 507 92 c 0
 536 45 553 44 628 29 c 0
 648 25 655 22 655 9 c 0
 655 -2 645 -3 631 -3 c 0
 585 -3 539 -2 493 -2 c 0
 444 -2 438 21 427 41 c 2
 292 289 l 2
 284 303 275 322 252 322 c 2
 229 322 l 2
 211 322 208 315 208 292 c 2xf4
209 590 m 0
 209 572 207 442 207 375 c 0
 207 350 207 347 242 347 c 0
 331 347 398 383 398 479 c 0
 398 568 328 616 230 616 c 0
 211 616 209 598 209 590 c 0
EndSplineSet
Validated: 1
EndChar

StartChar: S
Encoding: 83 83 44
Width: 510
VWidth: 0
Flags: W
HStem: -21 45<175.443 351.774> 626 45<185.83 323.576>
VStem: 70 31<102.875 189.985> 79 59<459.981 577.648> 370 37<498.163 576.219> 407 55<79.0672 202.615>
LayerCount: 3
Back
SplineSet
138 516 m 0xd8
 138 455 193 431 262 393 c 0
 351 344 462 301 462 174 c 0
 462 78 404 -21 256 -21 c 0
 199 -21 129 -9 99 3 c 0
 74 13 68 15 68 25 c 0
 68 51 70 74 70 96 c 2
 70 160 l 2
 70 172 74 190 86 190 c 0
 95 190 100 185 101 176 c 0xe4
 104 133 108 110 129 83 c 0
 158 46 212 24 272 24 c 0
 365 24 407 86 407 142 c 0
 407 297 79 269 79 500 c 0
 79 584 154 671 269 671 c 0
 318 671 360 661 396 646 c 0
 405 642 407 633 407 625 c 0xd4
 407 614 406 605 406 593 c 0
 406 568 407 539 407 522 c 0
 407 504 404 498 390 498 c 0
 378 498 373 519 370 533 c 0
 354 601 302 626 253 626 c 0
 197 626 138 586 138 516 c 0xd8
EndSplineSet
Fore
SplineSet
138 514 m 0xd8
 138 381 462 385 462 174 c 0
 462 78 404 -21 256 -21 c 0
 199 -21 129 -9 99 3 c 0
 74 13 68 15 68 25 c 0
 68 51 70 74 70 96 c 2
 70 160 l 2
 70 172 74 190 86 190 c 0
 95 190 100 185 101 176 c 0xe4
 104 133 108 110 129 83 c 0
 158 46 212 24 272 24 c 0
 365 24 407 86 407 142 c 0
 407 297 79 269 79 500 c 0
 79 584 154 671 269 671 c 0
 318 671 360 661 396 646 c 0
 405 642 407 633 407 625 c 0xd4
 407 614 406 605 406 593 c 0
 406 568 407 539 407 522 c 0
 407 504 404 498 390 498 c 0
 378 498 373 519 370 533 c 0
 354 601 302 626 253 626 c 0
 197 626 138 585 138 514 c 0xd8
EndSplineSet
Validated: 1
EndChar

StartChar: T
Encoding: 84 84 45
Width: 633
VWidth: 0
Flags: W
HStem: -6 42<172.811 264.984 359.345 482.529> 604 52<93.8424 277.858 362.782 546.991>
VStem: 19 39<501.347 564.87> 270 88<42.8855 330.865> 278 83<287.283 603.09>
LayerCount: 3
Fore
SplineSet
358 69 m 0xf0
 358 41 370 44 406 40 c 0
 414 39 435 38 452 36 c 0
 473 34 483 31 483 19 c 0
 483 3 467 -2 449 -2 c 0
 442 -2 371 0 320 0 c 0
 268 0 211 -6 185 -6 c 0
 174 -6 172 1 172 10 c 0
 172 30 204 31 228 36 c 0
 251 41 266 40 270 78 c 0xf0
 274 121 278 397 278 529 c 2
 278 570 l 2
 278 588 278 604 267 604 c 2
 225 604 l 2
 186 604 137 601 107 590 c 0
 84 581 68 555 58 534 c 0
 49 516 44 500 34 500 c 0
 19 500 19 509 19 516 c 0
 19 549 31 587 45 640 c 0
 47 647 53 686 71 686 c 0
 92 686 96 658 109 658 c 0
 210 658 287 656 365 656 c 0
 498 656 484 653 552 653 c 0
 578 653 567 686 590 686 c 0
 607 686 609 663 609 637 c 0
 609 627 608 614 608 606 c 0
 608 577 614 539 614 527 c 0
 614 520 612 504 600 504 c 0
 570 504 582 562 547 583 c 0
 516 602 436 604 409 604 c 2
 393 604 l 2
 365 604 361 590 361 558 c 0xe8
 361 546 362 420 362 404 c 0
 361 274 358 142 358 69 c 0xf0
EndSplineSet
Validated: 1
EndChar

StartChar: U
Encoding: 85 85 46
Width: 746
VWidth: 0
Flags: W
HStem: -25 55<264.216 489.761> 617 47<11.6442 95.4095 191.419 299.778 442.369 557.285 622.473 703.456>
VStem: 97 91<112.488 615.331> 570 48<172.148 605.514>
LayerCount: 3
Fore
SplineSet
618 378 m 0
 618 84 581 -25 353 -25 c 0
 241 -25 97 0 97 190 c 2
 97 586 l 2
 97 618 74 616 47 621 c 0
 41 622 11 623 11 638 c 0
 11 648 22 663 41 663 c 0
 61 663 89 660 122 660 c 0
 168 660 242 664 260 664 c 0
 288 664 300 658 300 638 c 0
 300 618 272 617 228 617 c 0
 206 617 188 615 188 568 c 2
 188 243 l 2
 188 128 206 30 368 30 c 0
 516 30 570 72 570 306 c 0
 570 379 570 462 568 531 c 0
 566 602 563 612 497 617 c 0
 444 621 442 633 442 644 c 0
 442 661 452 666 480 666 c 0
 494 666 538 660 575 660 c 0
 605 660 651 668 679 668 c 0
 698 668 706 659 706 648 c 0
 706 628 680 625 658 619 c 0
 622 610 620 609 620 562 c 0
 620 511 618 434 618 378 c 0
EndSplineSet
Validated: 1
EndChar

StartChar: V
Encoding: 86 86 47
Width: 727
VWidth: 0
Flags: W
HStem: -23 21G<342.5 356.5> 616 42<14.0283 94.5334 213.667 317.992 618.815 711.947>
LayerCount: 3
Back
SplineSet
318 637 m 4
 318 626 307 618 292 616 c 4
 272 613 213 621 213 590 c 4
 213 580 321 271 374 153 c 4
 378 144 382 139 386 139 c 4
 390 139 394 143 398 153 c 4
 433 235 557 562 557 596 c 4
 557 628 455 605 455 636 c 4
 455 655 474 659 493 659 c 4
 522 659 548 656 582 656 c 4
 665 656 682 658 690 658 c 4
 704 658 712 648 712 638 c 4
 712 622 694 617 676 615 c 4
 642 611 622 618 601 560 c 4
 568 466 407 85 379 6 c 4
 369 -22 362 -23 351 -23 c 4
 334 -23 327 5 318 36 c 4
 308 70 295 100 291 111 c 6
 104 577 l 5
 89 634 14 604 14 637 c 4
 14 653 50 655 60 655 c 4
 84 655 119 654 163 654 c 4
 189 654 268 658 294 658 c 4
 307 658 318 650 318 637 c 4
EndSplineSet
Fore
SplineSet
318 637 m 0
 318 626 307 618 292 616 c 0
 272 613 213 621 213 590 c 0
 213 580 321 271 374 153 c 0
 378 144 382 139 386 139 c 0
 390 139 394 143 398 153 c 0
 433 235 557 562 557 596 c 0
 557 628 455 605 455 636 c 0
 455 655 474 659 493 659 c 0
 522 659 548 656 582 656 c 0
 665 656 682 658 690 658 c 0
 704 658 712 648 712 638 c 0
 712 622 694 617 676 615 c 0
 642 611 622 618 601 560 c 0
 568 466 407 85 379 6 c 0
 369 -22 362 -23 351 -23 c 0
 334 -23 327 5 318 36 c 0
 308 70 295 100 291 111 c 2
 104 577 l 2
 94 603 84 607 71 612 c 0
 53 619 14 615 14 637 c 0
 14 653 50 655 60 655 c 0
 84 655 119 654 163 654 c 0
 189 654 268 658 294 658 c 0
 307 658 318 650 318 637 c 0
EndSplineSet
Validated: 1
EndChar

StartChar: W
Encoding: 87 87 48
Width: 943
VWidth: 0
Flags: W
HStem: -23 21G<310.5 321 591 604.5> 619 38<16.6303 78.8196 190.535 259.896 485.589 557.915 693.117 786.262 853.568 910.971>
VStem: 787 124<583 643.5>
LayerCount: 3
Fore
SplineSet
787 596 m 0
 787 613 758 616 732 619 c 0
 711 621 693 626 693 636 c 0
 693 655 710 659 720 659 c 0
 749 659 781 656 815 656 c 0
 834 656 879 657 887 657 c 0
 901 657 911 650 911 637 c 0
 911 626 904 622 894 620 c 0
 855 612 852 603 839 567 c 2
 762 358 l 1
 709 218 645 58 628 10 c 0
 618 -18 610 -23 599 -23 c 0
 583 -23 566 44 563 53 c 2
 492 271 l 2
 481 304 475 320 470 320 c 0
 464 320 458 302 445 270 c 0
 399 157 355 44 342 6 c 0
 333 -20 325 -20 317 -20 c 0
 304 -20 296 4 287 36 c 0
 277 70 265 100 261 111 c 2
 94 577 l 2
 83 608 59 611 41 614 c 0
 27 616 16 619 16 633 c 0
 16 649 30 654 40 654 c 2
 143 654 l 2
 169 654 212 657 238 657 c 0
 251 657 260 649 260 636 c 0
 260 621 246 620 230 619 c 0
 211 618 190 617 190 595 c 0
 190 585 281 302 334 184 c 0
 339 173 344 156 352 156 c 0
 356 156 361 161 367 176 c 0
 381 209 410 279 438 353 c 0
 444 369 448 376 448 386 c 0
 448 395 445 405 438 428 c 2
 389 577 l 2
 371 632 305 604 305 637 c 0
 305 653 317 657 327 657 c 0
 365 655 402 653 440 653 c 0
 467 653 514 656 538 656 c 0
 551 656 558 649 558 636 c 0
 558 622 545 621 528 620 c 0
 507 619 484 614 484 591 c 0
 484 581 569 296 617 175 c 0
 622 163 626 157 631 157 c 0
 635 157 640 162 646 175 c 0
 686 258 787 570 787 596 c 0
EndSplineSet
Validated: 1
EndChar

StartChar: X
Encoding: 88 88 49
Width: 741
VWidth: 0
Flags: W
HStem: -2 39<184.008 278.976 620.478 717.701> 621 40<38.1167 123.575 422.032 500.996 585.415 689.928>
DStem2: 346 447 293 354 0.55797 -0.829861<-184.49 42.8188 135.944 398.53> 302 303 317 257 0.573668 0.819088<-232.149 0.00972486 132.417 335.589>
LayerCount: 3
Fore
SplineSet
293 354 m 2
 124 606 l 2
 115 618 102 619 90 620 c 0
 42 623 38 629 38 644 c 0
 38 660 56 666 73 666 c 0
 105 666 116 663 174 663 c 0
 209 663 261 664 296 664 c 0
 313 664 327 659 327 649 c 0
 327 605 251 635 251 606 c 0
 251 594 255 589 346 447 c 0
 360 425 367 414 374 414 c 0
 381 414 387 425 403 447 c 2
 489 570 l 2
 495 579 501 592 501 602 c 0
 501 611 496 619 481 621 c 0
 458 625 422 619 422 642 c 0
 422 655 433 661 459 661 c 2
 560 661 l 2
 595 661 618 664 651 664 c 0
 665 664 690 663 690 642 c 0
 690 620 664 626 642 621 c 0
 599 613 601 618 575 591 c 0
 531 546 459 441 409 388 c 0
 404 383 401 378 401 372 c 0
 401 363 407 354 413 345 c 2
 579 111 l 2
 615 60 617 46 664 41 c 0
 692 38 718 38 718 14 c 0
 718 -3 686 -7 673 -7 c 0
 645 -7 575 0 531 0 c 0
 513 0 461 -4 431 -4 c 0
 410 -4 400 -2 400 17 c 0
 400 52 483 18 483 58 c 0
 483 74 393 204 360 255 c 0
 350 271 344 278 338 278 c 0
 332 278 327 271 317 257 c 0
 285 213 222 115 200 89 c 0
 189 76 184 65 184 57 c 0
 184 45 195 37 221 37 c 2
 232 37 l 2
 254 37 279 36 279 18 c 0
 279 1 246 -2 220 -2 c 0
 187 -2 185 0 152 0 c 0
 117 0 78 -3 45 -3 c 0
 23 -3 6 9 6 15 c 0
 6 39 35 41 64 44 c 0
 109 48 111 60 143 100 c 2
 302 303 l 2
 310 313 314 317 314 321 c 0
 314 327 308 332 293 354 c 2
EndSplineSet
Validated: 1
EndChar

StartChar: Y
Encoding: 89 89 50
Width: 741
VWidth: 0
Flags: W
HStem: -2 48<177.173 303.793 397.083 513.733> 624 43<16.0184 98.9973 222.02 317.984 414.133 508.991 585.588 687.983>
VStem: 304 91<49.3687 340.219>
LayerCount: 3
Fore
SplineSet
318 646 m 0
 318 627 296 626 273 624 c 0
 250 622 222 624 222 608 c 0
 222 597 303 478 348 401 c 0
 364 374 375 358 378 358 c 0
 381 358 389 371 402 396 c 0
 437 463 509 595 509 604 c 0
 509 613 496 622 481 623 c 0
 460 625 414 620 414 644 c 0
 414 657 423 667 447 667 c 0
 485 667 523 665 560 665 c 0
 589 665 624 669 652 669 c 0
 666 669 688 664 688 646 c 0
 688 624 664 624 642 621 c 0
 599 615 599 620 575 591 c 0
 539 547 435 374 400 320 c 0
 396 314 395 303 395 293 c 2
 395 90 l 2
 395 46 409 50 444 46 c 0
 473 43 514 48 514 24 c 0
 514 14 511 -2 473 -2 c 0
 441 -2 433 0 348 0 c 0
 276 0 223 -4 198 -4 c 0
 188 -4 176 -1 176 16 c 0
 176 44 209 44 244 46 c 0
 272 48 304 46 304 71 c 2
 304 286 l 2
 304 314 298 320 287 336 c 2
 99 606 l 2
 90 618 74 621 62 622 c 0
 22 626 16 630 16 645 c 0
 16 661 31 667 48 667 c 0
 80 667 97 665 155 665 c 0
 190 665 243 667 278 667 c 0
 303 667 318 660 318 646 c 0
EndSplineSet
Validated: 1
EndChar

StartChar: Z
Encoding: 90 90 51
Width: 718
VWidth: 0
Flags: W
HStem: 0 64<390.188 592.25> -0 48<184.007 348.812> 613 47<141.641 504.996> 665 20G<100 112.5>
DStem2: 40 32 188 66 0.638018 0.770022<111.199 736.985>
LayerCount: 3
Fore
SplineSet
40 32 m 2x70
 498 589 l 2
 503 595 505 600 505 604 c 0
 505 610 500 613 490 613 c 2
 279 610 l 2
 175 609 114 603 78 558 c 0
 65 542 58 532 48 532 c 0
 36 532 36 541 36 543 c 0
 36 581 59 605 80 660 c 0
 88 680 97 685 103 685 c 0
 122 685 110 653 141 653 c 0
 154 653 210 655 240 655 c 2
 628 660 l 2
 649 660 658 651 658 641 c 0
 658 636 656 631 652 626 c 2
 188 66 l 2
 185 63 184 59 184 57 c 0
 184 50 194 48 204 48 c 2x70
 535 64 l 2xb0
 586 66 606 92 627 146 c 0
 639 175 651 178 658 178 c 0
 663 178 670 175 670 159 c 0
 670 124 655 110 652 61 c 2
 650 24 l 2
 649 14 644 0 632 0 c 2
 65 -0 l 2
 44 0 34 1 34 10 c 0
 34 15 34 24 40 32 c 2x70
EndSplineSet
Validated: 1
EndChar

StartChar: comma
Encoding: 44 44 53
Width: 306
VWidth: 0
Flags: W
HStem: -174 28<102.887 141.635> -9 80<113.625 185.535>
VStem: 190 54<-99.9459 -13.964>
LayerCount: 3
Fore
SplineSet
142 -9 m 0
 117 -9 104 3 104 22 c 0
 104 51 131 71 162 71 c 0
 205 71 244 30 244 -28 c 0
 244 -114 159 -174 112 -174 c 0
 106 -174 102 -170 102 -164 c 0
 102 -154 115 -151 124 -146 c 0
 157 -128 190 -87 190 -48 c 0
 190 -22 175 -9 142 -9 c 0
EndSplineSet
Validated: 1
EndChar

StartChar: period
Encoding: 46 46 54
Width: 298
VWidth: 0
Flags: W
HStem: -17 92<114.347 191.653>
VStem: 107 92<-9.65255 67.6526>
LayerCount: 3
Fore
SplineSet
107 29 m 0
 107 54 128 75 153 75 c 0
 178 75 199 54 199 29 c 0
 199 4 178 -17 153 -17 c 0
 128 -17 107 4 107 29 c 0
EndSplineSet
Validated: 1
EndChar

StartChar: hyphen
Encoding: 45 45 55
Width: 298
VWidth: 250
Flags: W
HStem: 233 92<114.347 191.653>
VStem: 107 92<240.347 317.653>
LayerCount: 3
Fore
SplineSet
107 279 m 0
 107 304 128 325 153 325 c 0
 178 325 199 304 199 279 c 0
 199 254 178 233 153 233 c 0
 128 233 107 254 107 279 c 0
EndSplineSet
Validated: 1
EndChar

StartChar: endash
Encoding: 8211 8211 56
Width: 298
VWidth: 250
Flags: W
HStem: 233 92<114.347 191.653>
VStem: 107 92<240.347 317.653>
LayerCount: 3
Fore
SplineSet
107 279 m 4
 107 304 128 325 153 325 c 4
 178 325 199 304 199 279 c 4
 199 254 178 233 153 233 c 4
 128 233 107 254 107 279 c 4
EndSplineSet
Validated: 1
EndChar

StartChar: emdash
Encoding: 8212 8212 57
Width: 298
VWidth: 250
Flags: W
HStem: 233 92<114.347 191.653>
VStem: 107 92<240.347 317.653>
LayerCount: 3
Fore
SplineSet
107 279 m 0
 107 304 128 325 153 325 c 0
 178 325 199 304 199 279 c 0
 199 254 178 233 153 233 c 0
 128 233 107 254 107 279 c 0
EndSplineSet
Validated: 1
EndChar

StartChar: semicolon
Encoding: 59 59 58
Width: 298
VWidth: 250
Flags: W
HStem: 233 92<114.347 191.653>
VStem: 107 92<240.347 317.653>
LayerCount: 3
Fore
SplineSet
107 279 m 4
 107 304 128 325 153 325 c 4
 178 325 199 304 199 279 c 4
 199 254 178 233 153 233 c 4
 128 233 107 254 107 279 c 4
EndSplineSet
Validated: 1
EndChar

StartChar: colon
Encoding: 58 58 59
Width: 298
VWidth: 250
Flags: W
HStem: 233 92<114.347 191.653>
VStem: 107 92<240.347 317.653>
LayerCount: 3
Fore
SplineSet
107 279 m 0
 107 304 128 325 153 325 c 0
 178 325 199 304 199 279 c 0
 199 254 178 233 153 233 c 0
 128 233 107 254 107 279 c 0
EndSplineSet
Validated: 1
EndChar

StartChar: question
Encoding: 63 63 60
Width: 298
VWidth: 250
Flags: W
HStem: 233 92<114.347 191.653>
VStem: 107 92<240.347 317.653>
LayerCount: 3
Fore
SplineSet
107 279 m 0
 107 304 128 325 153 325 c 0
 178 325 199 304 199 279 c 0
 199 254 178 233 153 233 c 0
 128 233 107 254 107 279 c 0
EndSplineSet
Validated: 1
EndChar

StartChar: exclam
Encoding: 33 33 61
Width: 298
VWidth: 250
Flags: W
HStem: 233 92<114.347 191.653>
VStem: 107 92<240.347 317.653>
LayerCount: 3
Fore
SplineSet
107 279 m 0
 107 304 128 325 153 325 c 0
 178 325 199 304 199 279 c 0
 199 254 178 233 153 233 c 0
 128 233 107 254 107 279 c 0
EndSplineSet
Validated: 1
EndChar

StartChar: parenleft
Encoding: 40 40 62
Width: 298
VWidth: 250
Flags: W
HStem: 233 92<114.347 191.653>
VStem: 107 92<240.347 317.653>
LayerCount: 3
Fore
SplineSet
107 279 m 0
 107 304 128 325 153 325 c 0
 178 325 199 304 199 279 c 0
 199 254 178 233 153 233 c 0
 128 233 107 254 107 279 c 0
EndSplineSet
Validated: 1
EndChar

StartChar: parenright
Encoding: 41 41 63
Width: 298
VWidth: 250
Flags: W
HStem: 233 92<114.347 191.653>
VStem: 107 92<240.347 317.653>
LayerCount: 3
Fore
SplineSet
107 279 m 0
 107 304 128 325 153 325 c 0
 178 325 199 304 199 279 c 0
 199 254 178 233 153 233 c 0
 128 233 107 254 107 279 c 0
EndSplineSet
Validated: 1
EndChar

StartChar: quotedbl
Encoding: 34 34 64
Width: 298
VWidth: 250
Flags: W
HStem: 233 92<114.347 191.653>
VStem: 107 92<240.347 317.653>
LayerCount: 3
Fore
SplineSet
107 279 m 0
 107 304 128 325 153 325 c 0
 178 325 199 304 199 279 c 0
 199 254 178 233 153 233 c 0
 128 233 107 254 107 279 c 0
EndSplineSet
Validated: 1
EndChar

StartChar: numbersign
Encoding: 35 35 65
Width: 298
VWidth: 250
Flags: W
HStem: 233 92<114.347 191.653>
VStem: 107 92<240.347 317.653>
LayerCount: 3
Fore
SplineSet
107 279 m 0
 107 304 128 325 153 325 c 0
 178 325 199 304 199 279 c 0
 199 254 178 233 153 233 c 0
 128 233 107 254 107 279 c 0
EndSplineSet
Validated: 1
EndChar

StartChar: dollar
Encoding: 36 36 66
Width: 298
VWidth: 250
Flags: W
HStem: 233 92<114.347 191.653>
VStem: 107 92<240.347 317.653>
LayerCount: 3
Fore
SplineSet
107 279 m 0
 107 304 128 325 153 325 c 0
 178 325 199 304 199 279 c 0
 199 254 178 233 153 233 c 0
 128 233 107 254 107 279 c 0
EndSplineSet
Validated: 1
EndChar

StartChar: percent
Encoding: 37 37 67
Width: 298
VWidth: 250
Flags: W
HStem: 233 92<114.347 191.653>
VStem: 107 92<240.347 317.653>
LayerCount: 3
Fore
SplineSet
107 279 m 0
 107 304 128 325 153 325 c 0
 178 325 199 304 199 279 c 0
 199 254 178 233 153 233 c 0
 128 233 107 254 107 279 c 0
EndSplineSet
Validated: 1
EndChar

StartChar: ampersand
Encoding: 38 38 68
Width: 298
VWidth: 250
Flags: W
HStem: 233 92<114.347 191.653>
VStem: 107 92<240.347 317.653>
LayerCount: 3
Fore
SplineSet
107 279 m 0
 107 304 128 325 153 325 c 0
 178 325 199 304 199 279 c 0
 199 254 178 233 153 233 c 0
 128 233 107 254 107 279 c 0
EndSplineSet
Validated: 1
EndChar

StartChar: quotesingle
Encoding: 39 39 69
Width: 298
VWidth: 250
Flags: W
HStem: 233 92<114.347 191.653>
VStem: 107 92<240.347 317.653>
LayerCount: 3
Fore
SplineSet
107 279 m 0
 107 304 128 325 153 325 c 0
 178 325 199 304 199 279 c 0
 199 254 178 233 153 233 c 0
 128 233 107 254 107 279 c 0
EndSplineSet
Validated: 1
EndChar

StartChar: zero
Encoding: 48 48 70
Width: 298
VWidth: 250
Flags: W
HStem: 233 92<114.347 191.653>
VStem: 107 92<240.347 317.653>
LayerCount: 3
Fore
SplineSet
107 279 m 0
 107 304 128 325 153 325 c 0
 178 325 199 304 199 279 c 0
 199 254 178 233 153 233 c 0
 128 233 107 254 107 279 c 0
EndSplineSet
Validated: 1
EndChar

StartChar: one
Encoding: 49 49 71
Width: 298
VWidth: 250
Flags: W
HStem: 233 92<114.347 191.653>
VStem: 107 92<240.347 317.653>
LayerCount: 3
Fore
SplineSet
107 279 m 0
 107 304 128 325 153 325 c 0
 178 325 199 304 199 279 c 0
 199 254 178 233 153 233 c 0
 128 233 107 254 107 279 c 0
EndSplineSet
Validated: 1
EndChar

StartChar: two
Encoding: 50 50 72
Width: 298
VWidth: 250
Flags: W
HStem: 233 92<114.347 191.653>
VStem: 107 92<240.347 317.653>
LayerCount: 3
Fore
SplineSet
107 279 m 0
 107 304 128 325 153 325 c 0
 178 325 199 304 199 279 c 0
 199 254 178 233 153 233 c 0
 128 233 107 254 107 279 c 0
EndSplineSet
Validated: 1
EndChar

StartChar: three
Encoding: 51 51 73
Width: 298
VWidth: 250
Flags: W
HStem: 233 92<114.347 191.653>
VStem: 107 92<240.347 317.653>
LayerCount: 3
Fore
SplineSet
107 279 m 0
 107 304 128 325 153 325 c 0
 178 325 199 304 199 279 c 0
 199 254 178 233 153 233 c 0
 128 233 107 254 107 279 c 0
EndSplineSet
Validated: 1
EndChar

StartChar: four
Encoding: 52 52 74
Width: 298
VWidth: 250
Flags: W
HStem: 233 92<114.347 191.653>
VStem: 107 92<240.347 317.653>
LayerCount: 3
Fore
SplineSet
107 279 m 0
 107 304 128 325 153 325 c 0
 178 325 199 304 199 279 c 0
 199 254 178 233 153 233 c 0
 128 233 107 254 107 279 c 0
EndSplineSet
Validated: 1
EndChar

StartChar: five
Encoding: 53 53 75
Width: 298
VWidth: 250
Flags: W
HStem: 233 92<114.347 191.653>
VStem: 107 92<240.347 317.653>
LayerCount: 3
Fore
SplineSet
107 279 m 0
 107 304 128 325 153 325 c 0
 178 325 199 304 199 279 c 0
 199 254 178 233 153 233 c 0
 128 233 107 254 107 279 c 0
EndSplineSet
Validated: 1
EndChar

StartChar: six
Encoding: 54 54 76
Width: 298
VWidth: 250
Flags: W
HStem: 233 92<114.347 191.653>
VStem: 107 92<240.347 317.653>
LayerCount: 3
Fore
SplineSet
107 279 m 0
 107 304 128 325 153 325 c 0
 178 325 199 304 199 279 c 0
 199 254 178 233 153 233 c 0
 128 233 107 254 107 279 c 0
EndSplineSet
Validated: 1
EndChar

StartChar: seven
Encoding: 55 55 77
Width: 298
VWidth: 250
Flags: W
HStem: 233 92<114.347 191.653>
VStem: 107 92<240.347 317.653>
LayerCount: 3
Fore
SplineSet
107 279 m 0
 107 304 128 325 153 325 c 0
 178 325 199 304 199 279 c 0
 199 254 178 233 153 233 c 0
 128 233 107 254 107 279 c 0
EndSplineSet
Validated: 1
EndChar

StartChar: eight
Encoding: 56 56 78
Width: 298
VWidth: 250
Flags: W
HStem: 233 92<114.347 191.653>
VStem: 107 92<240.347 317.653>
LayerCount: 3
Fore
SplineSet
107 279 m 0
 107 304 128 325 153 325 c 0
 178 325 199 304 199 279 c 0
 199 254 178 233 153 233 c 0
 128 233 107 254 107 279 c 0
EndSplineSet
Validated: 1
EndChar

StartChar: nine
Encoding: 57 57 79
Width: 298
VWidth: 250
Flags: W
HStem: 233 92<114.347 191.653>
VStem: 107 92<240.347 317.653>
LayerCount: 3
Fore
SplineSet
107 279 m 0
 107 304 128 325 153 325 c 0
 178 325 199 304 199 279 c 0
 199 254 178 233 153 233 c 0
 128 233 107 254 107 279 c 0
EndSplineSet
Validated: 1
EndChar
